<svg xmlns="http://www.w3.org/2000/svg" xmlns:xlink="http://www.w3.org/1999/xlink" viewBox="0 0 1152 648"><defs><clipPath id="clip-path"><path d="M1070.34,334.87c-62.76-71,11-118.43,2.17-177.55C1063.64,97.67,1008,46,941.72,35.78,882.14,26.59,822.67,48,766.14,67.19S647.29,103.86,589.8,87.13c-48.07-14-89.83-51.14-140.16-47-42.78,3.53-93.83,32.69-136,40.15-52.63,9.32-87.16-19.1-140.58-14.71-31,2.54-60.44,18.2-77.71,41.41a87.45,87.45,0,0,0-16.49,65.1c3.3,52.54,60.21,97.8,2.76,162.78-19.61,22.18-32.66,53.07-24,80.26,8.42,26.42,44.27,43.13,44.53,70.61.2,21.68-22.67,38.94-24.51,60.57-1.58,18.56,13.35,35.72,31.7,44.52s263.42,25.31,368.09,23.44h197c104.67,1.87,349.74-14.64,368.09-23.44s33.28-26,31.7-44.52c-1.84-21.63-24.71-38.89-24.51-60.57.26-27.48,36.11-44.19,44.53-70.61C1103,387.94,1090,357.05,1070.34,334.87Z" fill="none"/></clipPath><linearGradient id="linear-gradient" x1="592.51" y1="527.84" x2="592.51" y2="252.24" gradientUnits="userSpaceOnUse"><stop offset="0" stop-color="#fff" stop-opacity="0"/><stop offset="0" stop-color="#fdfeff" stop-opacity="0.02"/><stop offset="0.04" stop-color="#eaf8fe" stop-opacity="0.2"/><stop offset="0.09" stop-color="#d9f2fd" stop-opacity="0.37"/><stop offset="0.14" stop-color="#caedfc" stop-opacity="0.52"/><stop offset="0.19" stop-color="#bce8fc" stop-opacity="0.65"/><stop offset="0.25" stop-color="#b1e4fb" stop-opacity="0.76"/><stop offset="0.32" stop-color="#a8e1fb" stop-opacity="0.85"/><stop offset="0.4" stop-color="#a1dffa" stop-opacity="0.92"/><stop offset="0.49" stop-color="#9dddfa" stop-opacity="0.97"/><stop offset="0.63" stop-color="#9adcfa" stop-opacity="0.99"/><stop offset="1" stop-color="#99dcfa"/></linearGradient><linearGradient id="linear-gradient-2" x1="452.75" y1="528.12" x2="452.75" y2="252.52" xlink:href="#linear-gradient"/><linearGradient id="linear-gradient-3" x1="308.72" y1="536.61" x2="308.72" y2="261.01" xlink:href="#linear-gradient"/><linearGradient id="linear-gradient-4" x1="739.12" y1="574.74" x2="739.12" y2="299.14" xlink:href="#linear-gradient"/><linearGradient id="linear-gradient-5" x1="884.28" y1="580.45" x2="884.28" y2="304.84" xlink:href="#linear-gradient"/><linearGradient id="linear-gradient-6" x1="1024.55" y1="580.45" x2="1024.55" y2="304.84" xlink:href="#linear-gradient"/><linearGradient id="linear-gradient-7" x1="979.79" y1="399.1" x2="979.79" y2="465.17" gradientUnits="userSpaceOnUse"><stop offset="0" stop-color="#04688c"/><stop offset="0.08" stop-color="#096d93"/><stop offset="0.39" stop-color="#197ea7"/><stop offset="0.7" stop-color="#2288b4"/><stop offset="1" stop-color="#258bb8"/></linearGradient><linearGradient id="linear-gradient-8" x1="840.84" y1="399.1" x2="840.84" y2="465.17" xlink:href="#linear-gradient-7"/><linearGradient id="linear-gradient-9" x1="693.9" y1="399.1" x2="693.9" y2="465.17" xlink:href="#linear-gradient-7"/><linearGradient id="linear-gradient-10" x1="552.55" y1="399.1" x2="552.55" y2="465.17" xlink:href="#linear-gradient-7"/><linearGradient id="linear-gradient-11" x1="409.13" y1="399.1" x2="409.13" y2="465.17" xlink:href="#linear-gradient-7"/><linearGradient id="linear-gradient-12" x1="265.7" y1="399.1" x2="265.7" y2="465.17" xlink:href="#linear-gradient-7"/><linearGradient id="linear-gradient-13" x1="166.01" y1="539.82" x2="166.01" y2="264.21" xlink:href="#linear-gradient"/><linearGradient id="linear-gradient-14" x1="122.99" y1="399.1" x2="122.99" y2="465.17" xlink:href="#linear-gradient-7"/><linearGradient id="Безымянный_градиент_13" x1="2494.36" y1="404.72" x2="2439.02" y2="449.77" gradientTransform="matrix(-1, 0, 0, 1, 2811.49, 0)" gradientUnits="userSpaceOnUse"><stop offset="0" stop-color="#f2a178"/><stop offset="1" stop-color="#ffdab8"/></linearGradient></defs><g style="isolation:isolate"><g id="Layer_4" data-name="Layer 4"><path d="M1105,418.29c4.7-14.76,4.21-31.52-1.43-48.46-4.89-14.67-13.44-29.17-24.73-41.94-35-39.54-23-69.13-9.23-103.39,8.68-21.53,17.66-43.8,14-68.71-4.65-31.21-21.39-61.58-47.16-85.52a177.62,177.62,0,0,0-92.89-45.1,204.68,204.68,0,0,0-31.15-2.33c-49.31,0-97.13,16.27-143.37,32l-6.49,2.2c-39.86,13.53-82.36,26.06-123,26.06A163.81,163.81,0,0,1,593,76.84c-16.64-4.84-33.15-13-49.13-20.79-27-13.26-54.95-27-86.39-27-2.93,0-5.89.12-8.79.36-25.14,2.07-52.23,12.17-78.42,21.94-20.93,7.8-40.7,15.17-58.59,18.34a110,110,0,0,1-19.5,1.72c-17.27,0-33-3.9-49.64-8-17.93-4.44-36.47-9-58.11-9-4.09,0-8.21.17-12.27.5-34.45,2.83-66.52,20-85.79,45.84A98.29,98.29,0,0,0,67.85,173.2c1.23,18.12,8,35,14.6,51.3,13.81,34.26,25.73,63.85-9.23,103.39-11.29,12.77-19.85,27.27-24.73,41.94-5.65,16.94-6.14,33.7-1.43,48.46,4.46,14,14.55,24.83,24.31,35.3C81.46,464.41,91,474.64,91.1,485.83c.08,8.32-5.16,16.9-10.7,26-5.94,9.75-12.68,20.79-13.77,33.6-1.84,21.53,13,43.13,37.84,55,12.51,6,85.09,12,143.77,16,78.87,5.36,159.93,8.69,211.54,8.69,6.35,0,12.34,0,17.82-.14H674.41c5.47.09,11.46.14,17.82.14h0c51.61,0,132.66-3.33,211.52-8.69,58.68-4,131.26-10,143.78-16,24.82-11.9,39.67-33.5,37.84-55-1.1-12.81-7.83-23.85-13.78-33.6-5.54-9.09-10.77-17.67-10.69-26,.1-11.19,9.63-21.42,19.73-32.24C1090.39,443.12,1100.48,432.3,1105,418.29Zm-30.65,128c1.58,18.56-13.35,35.72-31.7,44.52s-263.42,25.31-368.09,23.44h-197c-104.67,1.87-349.74-14.64-368.09-23.44s-33.28-26-31.7-44.52c1.85-21.63,24.72-38.89,24.51-60.57-.26-27.48-36.11-44.19-44.53-70.61-8.67-27.19,4.37-58.08,24-80.26,57.46-65,.54-110.24-2.75-162.78A87.44,87.44,0,0,1,95.39,107c17.28-23.21,46.66-38.87,77.71-41.41,53.42-4.39,88,24,140.58,14.71,42.13-7.46,93.18-36.62,136-40.15,50.33-4.15,92.09,33,140.16,47,57.49,16.73,119.82-.75,176.34-19.94s116-40.6,175.58-31.41C1008,46,1063.65,97.67,1072.52,157.32c8.79,59.12-64.94,106.57-2.18,177.55,19.61,22.18,32.66,53.07,24,80.26-8.43,26.42-44.28,43.13-44.54,70.61C1049.59,507.42,1072.46,524.68,1074.3,546.31Z" fill="#99dcfa" opacity="0.4" style="mix-blend-mode:multiply"/></g><g id="Layer_1" data-name="Layer 1"><g clip-path="url(#clip-path)"><path d="M1070.34,334.87c-62.76-71,11-118.43,2.17-177.55C1063.64,97.67,1008,46,941.72,35.78,882.14,26.59,822.67,48,766.14,67.19S647.29,103.86,589.8,87.13c-48.07-14-89.83-51.14-140.16-47-42.78,3.53-93.83,32.69-136,40.15-52.63,9.32-87.16-19.1-140.58-14.71-31,2.54-60.44,18.2-77.71,41.41a87.45,87.45,0,0,0-16.49,65.1c3.3,52.54,60.21,97.8,2.76,162.78-19.61,22.18-32.66,53.07-24,80.26,8.42,26.42,44.27,43.13,44.53,70.61.2,21.68-22.67,38.94-24.51,60.57-1.58,18.56,13.35,35.72,31.7,44.52s263.42,25.31,368.09,23.44h197c104.67,1.87,349.74-14.64,368.09-23.44s33.28-26,31.7-44.52c-1.84-21.63-24.71-38.89-24.51-60.57.26-27.48,36.11-44.19,44.53-70.61C1103,387.94,1090,357.05,1070.34,334.87Z" fill="none" opacity="0.1"/><rect x="35.96" y="471.55" width="1050.4" height="176.45" fill="#04688c" opacity="0.3"/><polygon points="567.75 221.94 495.24 591.99 689.79 591.99 579.8 221.94 577.07 219.55 567.75 221.94" opacity="0.8" fill="url(#linear-gradient)" style="mix-blend-mode:multiply"/><polygon points="427.99 221.94 355.48 591.99 550.02 591.99 440.03 221.94 437.3 219.55 427.99 221.94" opacity="0.8" fill="url(#linear-gradient-2)" style="mix-blend-mode:multiply"/><polygon points="283.95 221.94 211.44 591.99 405.99 591.99 296 221.94 293.27 219.55 283.95 221.94" opacity="0.8" fill="url(#linear-gradient-3)" style="mix-blend-mode:multiply"/><polygon points="714.35 221.94 641.84 591.99 836.39 591.99 726.4 221.94 723.67 219.55 714.35 221.94" opacity="0.2" fill="url(#linear-gradient-4)"/><polygon points="859.52 221.94 787.01 591.99 981.56 591.99 871.57 221.94 868.84 219.55 859.52 221.94" opacity="0.2" fill="url(#linear-gradient-5)"/><polygon points="999.79 221.94 927.28 591.99 1121.82 591.99 1011.83 221.94 1009.1 219.55 999.79 221.94" opacity="0.2" fill="url(#linear-gradient-6)"/><path d="M977.93,467.6c0-7.84,0-204.68,0-212.52q0-12.63,0-25.25c0-1.6.48-2,2.07-1.92,1.27.06,1.56.75,1.56,1.92q0,17.41,0,34.82c0,4.65,0,198.3.07,203Z" fill="#04688c"/><path d="M976.62,228.94a4.88,4.88,0,0,1-2.5-4.09c0-.34.57-1,1-1.11,4.81-1.65,9.58-3.42,14.47-4.77s10-2.35,15.1-3.44c4.64-1,8.68,0,11.9,3.69,1.55,1.78,1.37,2.45-.94,2.92-4.07.83-8.16,1.52-12.21,2.42a21.16,21.16,0,0,0-5.58,1.91c-2.87,1.6-6,2.05-9.12,2.57a46.77,46.77,0,0,1-4.87.53,1.26,1.26,0,0,1-1-.63c-.48-1.63-1.18-2.24-2.89-2.28-2,0-2.82.47-3.34,2.28m36.91-7.8c0-.14,0-.29,0-.43-2.06-2.05-4.09-4.11-7.49-3.37-2.71.58-5.45,1-8.18,1.52-1.41.27-2.81.58-4.21.87l-.09.46c1.8.88,3.57,1.85,5.42,2.6a5.91,5.91,0,0,0,2.72.23c2.23-.24,4.44-.61,6.66-1,1.72-.28,3.42-.61,5.13-.92" fill="#04688c"/><path d="M983,478.4h-6.49a1.15,1.15,0,0,1-1.15-1.15V389.54l2.54-2.54,3.7,0,2.56,2.56v87.71A1.15,1.15,0,0,1,983,478.4" fill="url(#linear-gradient-7)"/><rect x="963.7" y="476.54" width="32.18" height="1.87" fill="#04688c"/><path d="M839,467.6c0-7.84,0-204.68,0-212.52V229.83c0-1.6.48-2,2.07-1.92,1.28.06,1.57.75,1.57,1.92q-.06,17.41,0,34.82c0,4.65,0,198.3.06,203Z" fill="#04688c"/><path d="M837.68,228.94a4.88,4.88,0,0,1-2.5-4.09c0-.34.56-1,1-1.11,4.8-1.65,9.57-3.42,14.46-4.77s10-2.35,15.1-3.44c4.64-1,8.68,0,11.9,3.69,1.56,1.78,1.38,2.45-.94,2.92-4.06.83-8.16,1.52-12.2,2.42a20.92,20.92,0,0,0-5.58,1.91c-2.88,1.6-6,2.05-9.13,2.57a46.87,46.87,0,0,1-4.86.53,1.23,1.23,0,0,1-1-.63c-.48-1.63-1.19-2.24-2.89-2.28-2,0-2.83.47-3.34,2.28m36.91-7.8c0-.14,0-.29,0-.43-2.07-2.05-4.09-4.11-7.49-3.37-2.71.58-5.46,1-8.18,1.52-1.41.27-2.82.58-4.22.87,0,.15,0,.31-.08.46,1.8.88,3.56,1.85,5.42,2.6a5.88,5.88,0,0,0,2.71.23c2.23-.24,4.45-.61,6.67-1,1.71-.28,3.42-.61,5.13-.92" fill="#04688c"/><path d="M844.09,478.4H837.6a1.15,1.15,0,0,1-1.16-1.15V389.54L839,387l3.7,0,2.56,2.56v87.71a1.15,1.15,0,0,1-1.15,1.15" fill="url(#linear-gradient-8)"/><rect x="824.75" y="476.54" width="32.18" height="1.87" fill="#04688c"/><path d="M692,467.6c0-7.84,0-204.68,0-212.52q0-12.63,0-25.25c0-1.6.47-2,2.06-1.92,1.28.06,1.57.75,1.57,1.92q0,17.41,0,34.82c0,4.65,0,198.3.07,203Z" fill="#04688c"/><path d="M690.73,228.94a4.88,4.88,0,0,1-2.5-4.09c0-.34.57-1,1-1.11,4.81-1.65,9.58-3.42,14.46-4.77s10.06-2.35,15.1-3.44c4.64-1,8.69,0,11.9,3.69,1.56,1.78,1.38,2.45-.93,2.92-4.07.83-8.16,1.52-12.21,2.42a21.16,21.16,0,0,0-5.58,1.91c-2.88,1.6-6,2.05-9.12,2.57a46.77,46.77,0,0,1-4.87.53,1.26,1.26,0,0,1-1-.63c-.48-1.63-1.18-2.24-2.89-2.28-2,0-2.82.47-3.34,2.28m36.91-7.8c0-.14,0-.29,0-.43-2.07-2.05-4.09-4.11-7.49-3.37-2.71.58-5.45,1-8.18,1.52-1.41.27-2.81.58-4.21.87l-.09.46c1.8.88,3.57,1.85,5.42,2.6a5.88,5.88,0,0,0,2.71.23c2.23-.24,4.45-.61,6.67-1,1.71-.28,3.42-.61,5.13-.92" fill="#04688c"/><path d="M697.14,478.4h-6.49a1.15,1.15,0,0,1-1.15-1.15V389.54L692,387l3.7,0,2.55,2.56v87.71a1.14,1.14,0,0,1-1.15,1.15" fill="url(#linear-gradient-9)"/><rect x="677.81" y="476.54" width="32.18" height="1.87" fill="#04688c"/><path d="M550.69,467.6c0-7.84,0-204.68,0-212.52V229.83c0-1.6.48-2,2.07-1.92,1.28.06,1.57.75,1.56,1.92q0,17.41,0,34.82c0,4.65,0,198.3.06,203Z" fill="#04688c"/><path d="M549.38,228.94a4.89,4.89,0,0,1-2.49-4.09c0-.34.56-1,1-1.11,4.8-1.65,9.57-3.42,14.46-4.77s10-2.35,15.1-3.44c4.64-1,8.68,0,11.9,3.69,1.56,1.78,1.38,2.45-.94,2.92-4.06.83-8.16,1.52-12.21,2.42a21.16,21.16,0,0,0-5.58,1.91c-2.87,1.6-6,2.05-9.12,2.57a46.77,46.77,0,0,1-4.87.53,1.23,1.23,0,0,1-1-.63,2.63,2.63,0,0,0-2.9-2.28c-2,0-2.82.47-3.34,2.28m36.92-7.8,0-.43c-2.06-2.05-4.08-4.11-7.48-3.37-2.71.58-5.46,1-8.18,1.52-1.41.27-2.82.58-4.22.87,0,.15-.06.31-.08.46,1.8.88,3.56,1.85,5.41,2.6a5.93,5.93,0,0,0,2.72.23c2.23-.24,4.45-.61,6.66-1,1.72-.28,3.43-.61,5.14-.92" fill="#04688c"/><path d="M555.8,478.4h-6.49a1.15,1.15,0,0,1-1.16-1.15V389.54l2.54-2.54,3.7,0,2.56,2.56v87.71a1.15,1.15,0,0,1-1.15,1.15" fill="url(#linear-gradient-10)"/><rect x="536.46" y="476.54" width="32.18" height="1.87" fill="#04688c"/><path d="M407.26,467.6c0-7.84,0-204.68,0-212.52q0-12.63,0-25.25c0-1.6.47-2,2.06-1.92,1.28.06,1.57.75,1.57,1.92q0,17.41,0,34.82c0,4.65,0,198.3.07,203Z" fill="#04688c"/><path d="M406,228.94a4.88,4.88,0,0,1-2.5-4.09c0-.34.56-1,1-1.11,4.81-1.65,9.57-3.42,14.46-4.77s10.06-2.35,15.1-3.44c4.64-1,8.69,0,11.9,3.69,1.56,1.78,1.38,2.45-.93,2.92-4.07.83-8.16,1.52-12.21,2.42a21.16,21.16,0,0,0-5.58,1.91c-2.88,1.6-6,2.05-9.12,2.57a46.77,46.77,0,0,1-4.87.53,1.24,1.24,0,0,1-1-.63c-.48-1.63-1.19-2.24-2.89-2.28-2,0-2.83.47-3.34,2.28m36.91-7.8c0-.14,0-.29,0-.43-2.07-2.05-4.09-4.11-7.49-3.37-2.71.58-5.45,1-8.18,1.52-1.41.27-2.81.58-4.21.87l-.09.46c1.8.88,3.56,1.85,5.42,2.6a5.88,5.88,0,0,0,2.71.23c2.23-.24,4.45-.61,6.67-1,1.71-.28,3.42-.61,5.13-.92" fill="#04688c"/><path d="M412.37,478.4h-6.49a1.14,1.14,0,0,1-1.15-1.15V389.54l2.53-2.54,3.71,0,2.55,2.56v87.71a1.14,1.14,0,0,1-1.15,1.15" fill="url(#linear-gradient-11)"/><rect x="393.04" y="476.54" width="32.18" height="1.87" fill="#04688c"/><path d="M263.84,467.6c0-7.84,0-204.68,0-212.52V229.83c0-1.6.48-2,2.07-1.92,1.27.06,1.57.75,1.56,1.92q0,17.41,0,34.82c0,4.65,0,198.3.06,203Z" fill="#04688c"/><path d="M262.53,228.94a4.89,4.89,0,0,1-2.49-4.09c0-.34.56-1,1-1.11,4.8-1.65,9.57-3.42,14.46-4.77s10.05-2.35,15.1-3.44c4.64-1,8.68,0,11.9,3.69,1.56,1.78,1.37,2.45-.94,2.92-4.06.83-8.16,1.52-12.21,2.42a21.16,21.16,0,0,0-5.58,1.91c-2.87,1.6-6,2.05-9.12,2.57a46.77,46.77,0,0,1-4.87.53,1.23,1.23,0,0,1-1-.63c-.49-1.63-1.19-2.24-2.9-2.28-2,0-2.82.47-3.34,2.28m36.92-7.8,0-.43c-2.06-2.05-4.08-4.11-7.49-3.37-2.71.58-5.45,1-8.18,1.52-1.41.27-2.81.58-4.21.87l-.09.46c1.8.88,3.57,1.85,5.42,2.6a5.91,5.91,0,0,0,2.72.23c2.23-.24,4.45-.61,6.66-1,1.72-.28,3.42-.61,5.14-.92" fill="#04688c"/><path d="M268.94,478.4h-6.48a1.15,1.15,0,0,1-1.16-1.15V389.54l2.54-2.54,3.7,0,2.56,2.56v87.71a1.15,1.15,0,0,1-1.16,1.15" fill="url(#linear-gradient-12)"/><rect x="249.61" y="476.54" width="32.18" height="1.87" fill="#04688c"/><path d="M267.56,257.17l5.83.47a10.73,10.73,0,0,1-.09,4.83c-.7,2-5.65,3.67-5.65,3.67l-.09-9" fill="#04688c"/><polyline points="267.57 257.17 273.39 257.64 268.99 258.49 267.65 266.1 267.57 257.17" fill="#00afaf"/><path d="M272.1,260.44a.71.71,0,0,0-.71-.71.7.7,0,0,0-.7.71.7.7,0,0,0,.7.7A.7.7,0,0,0,272.1,260.44Z" fill="#fff"/><path d="M278.68,258.22c.44.52,3.77,2.5,0,5.68-.18.34.32,1.23.68,1.12,5.42-3.72.33-8.35-.23-7.89S278.17,257.61,278.68,258.22Z" fill="#00afaf"/><path d="M279.24,257.1a.18.18,0,0,0-.11,0c-.56.45-1,.48-.45,1.09s3.77,2.5,0,5.68c-.17.32.27,1.13.61,1.13h.07c5.17-3.55.77-7.92-.12-7.92Z" fill="#00afaf"/><path d="M280.94,267.26c.08.69.55,1.34,1.16,1.15s8.32-6.81-.39-14.17a.53.53,0,0,0-.38-.13.56.56,0,0,0-.36.19,1.28,1.28,0,0,0-.42,1C288.19,262,280.86,266.57,280.94,267.26Z" fill="#00afaf"/><path d="M281.37,254.11h0a.56.56,0,0,0-.36.19,1.28,1.28,0,0,0-.42,1c7.64,6.74.31,11.28.39,12s.44,1.18.94,1.18l.22,0c.59-.19,8.32-6.81-.39-14.17a.51.51,0,0,0-.34-.13Z" fill="#00afaf"/><path d="M283.25,270.7c-.1.49.27,1.5,1.08,1.24,12.66-11.64-.61-22-1.15-21.63a1.21,1.21,0,0,0-.37,1.46C294.7,261,283.34,270.21,283.25,270.7Z" fill="#00afaf"/><path d="M283.22,250.3h0a1.21,1.21,0,0,0-.37,1.46c11.89,9.27.53,18.44.44,18.93s.19,1.28.82,1.28a.82.82,0,0,0,.26,0c12.44-11.43-.15-21.64-1.11-21.64Z" fill="#00afaf"/><path d="M276.75,262.55a1.54,1.54,0,1,1,1.54-1.54A1.54,1.54,0,0,1,276.75,262.55Z" fill="#00afaf"/><path d="M276.75,262.55a1.54,1.54,0,1,1,1.54-1.54A1.54,1.54,0,0,1,276.75,262.55Z" fill="#04688c"/><path d="M406.2,216.73c.52-.44,2.51-3.77,5.68,0,.35.18,1.23-.33,1.12-.68-3.71-5.42-8.34-.33-7.89.23S405.59,217.24,406.2,216.73Z" fill="#00afaf"/><path d="M409.12,213.58c-2.4,0-4.31,2.33-4,2.7s.42.68.65.68a.8.8,0,0,0,.44-.23c.34-.28,1.29-1.78,2.78-1.78.81,0,1.78.45,2.9,1.78a.48.48,0,0,0,.18,0c.4,0,1-.41.94-.71-1.27-1.85-2.64-2.47-3.88-2.47Z" fill="#00afaf"/><path d="M415.24,214.47c.7-.08,1.35-.55,1.15-1.16s-6.8-8.32-14.17.39a.51.51,0,0,0-.12.38.54.54,0,0,0,.18.36,1.3,1.3,0,0,0,1,.42C410,207.22,414.55,214.55,415.24,214.47Z" fill="#00afaf"/><path d="M409.54,209.58c-2.18,0-4.7,1-7.32,4.12a.51.51,0,0,0-.12.38.54.54,0,0,0,.18.36,1.45,1.45,0,0,0,.89.43h.11c2.31-2.62,4.36-3.48,6.09-3.48,3.28,0,5.38,3.09,5.86,3.09h0c.7-.08,1.35-.55,1.15-1.16a9,9,0,0,0-6.85-3.73Z" fill="#00afaf"/><path d="M418.69,212.16c.49.1,1.49-.27,1.23-1.08-11.64-12.66-22,.61-21.62,1.15a1.24,1.24,0,0,0,1.46.37C409,200.71,418.19,212.06,418.69,212.16Z" fill="#00afaf"/><path d="M409.42,205.62c-6.69,0-11.38,6.24-11.12,6.61a1.22,1.22,0,0,0,1,.48.91.91,0,0,0,.47-.11c3.18-4.08,6.35-5.42,9.16-5.42,5.38,0,9.44,4.92,9.77,5l.17,0c.52,0,1.3-.37,1.06-1.1-3.73-4.06-7.34-5.45-10.5-5.46Z" fill="#00afaf"/><path d="M410.53,218.66a1.54,1.54,0,1,1-1.54-1.54A1.55,1.55,0,0,1,410.53,218.66Z" fill="#00afaf"/><path d="M410.53,218.66a1.54,1.54,0,1,1-1.54-1.54A1.55,1.55,0,0,1,410.53,218.66Z" fill="#04688c"/><path d="M119.75,216.73c.52-.44,2.51-3.77,5.68,0,.35.18,1.23-.33,1.12-.68-3.71-5.42-8.34-.33-7.89.23S119.14,217.24,119.75,216.73Z" fill="#00afaf"/><path d="M122.67,213.58c-2.4,0-4.31,2.33-4,2.7s.42.68.65.68a.8.8,0,0,0,.44-.23c.34-.28,1.29-1.78,2.78-1.78.81,0,1.78.45,2.9,1.78a.48.48,0,0,0,.18,0c.4,0,1-.41.94-.71-1.27-1.85-2.64-2.47-3.88-2.47Z" fill="#00afaf"/><path d="M128.79,214.47c.7-.08,1.35-.55,1.15-1.16s-6.8-8.32-14.17.39a.51.51,0,0,0-.12.38.54.54,0,0,0,.18.36,1.3,1.3,0,0,0,1,.42C123.57,207.22,128.1,214.55,128.79,214.47Z" fill="#00afaf"/><path d="M123.09,209.58c-2.18,0-4.7,1-7.32,4.12a.51.51,0,0,0-.12.38.54.54,0,0,0,.18.36,1.45,1.45,0,0,0,.89.43h.11c2.31-2.62,4.36-3.48,6.09-3.48,3.28,0,5.38,3.09,5.86,3.09h0c.7-.08,1.35-.55,1.15-1.16a9,9,0,0,0-6.85-3.73Z" fill="#00afaf"/><path d="M132.24,212.16c.49.1,1.49-.27,1.23-1.08-11.64-12.66-22,.61-21.63,1.15a1.26,1.26,0,0,0,1.47.37C122.58,200.71,131.74,212.06,132.24,212.16Z" fill="#00afaf"/><path d="M123,205.62c-6.69,0-11.38,6.24-11.13,6.61a1.25,1.25,0,0,0,1,.48.91.91,0,0,0,.47-.11c3.18-4.08,6.35-5.42,9.16-5.42,5.38,0,9.44,4.92,9.77,5l.17,0c.52,0,1.3-.37,1.06-1.1-3.73-4.06-7.34-5.45-10.5-5.46Z" fill="#00afaf"/><path d="M124.08,218.66a1.54,1.54,0,1,1-1.54-1.54A1.55,1.55,0,0,1,124.08,218.66Z" fill="#00afaf"/><path d="M124.08,218.66a1.54,1.54,0,1,1-1.54-1.54A1.55,1.55,0,0,1,124.08,218.66Z" fill="#04688c"/><path d="M549.63,216.73c.52-.44,2.5-3.77,5.68,0,.34.18,1.23-.33,1.12-.68-3.72-5.42-8.35-.33-7.89.23S549,217.24,549.63,216.73Z" fill="#00afaf"/><path d="M552.54,213.58c-2.4,0-4.3,2.33-4,2.7s.42.68.65.68a.83.83,0,0,0,.44-.23c.33-.28,1.28-1.78,2.77-1.78.81,0,1.79.45,2.91,1.78a.48.48,0,0,0,.18,0c.4,0,1-.41.94-.71-1.27-1.85-2.65-2.47-3.89-2.47Z" fill="#00afaf"/><path d="M558.67,214.47c.69-.08,1.34-.55,1.15-1.16s-6.81-8.32-14.17.39a.52.52,0,0,0-.13.38.56.56,0,0,0,.19.36,1.28,1.28,0,0,0,1,.42C553.44,207.22,558,214.55,558.67,214.47Z" fill="#00afaf"/><path d="M553,209.58c-2.17,0-4.69,1-7.31,4.12a.52.52,0,0,0-.13.38.56.56,0,0,0,.19.36,1.41,1.41,0,0,0,.88.43h.11c2.32-2.62,4.37-3.48,6.1-3.48,3.27,0,5.38,3.09,5.86,3.09h0c.69-.08,1.34-.55,1.15-1.16a9,9,0,0,0-6.86-3.73Z" fill="#00afaf"/><path d="M562.11,212.16c.49.1,1.5-.27,1.24-1.08-11.64-12.66-22,.61-21.63,1.15a1.24,1.24,0,0,0,1.46.37C552.45,200.71,561.62,212.06,562.11,212.16Z" fill="#00afaf"/><path d="M552.85,205.62c-6.69,0-11.39,6.24-11.13,6.61a1.25,1.25,0,0,0,1,.48.87.87,0,0,0,.46-.11c3.18-4.08,6.35-5.42,9.16-5.42,5.38,0,9.45,4.92,9.77,5l.17,0c.52,0,1.3-.37,1.07-1.1-3.74-4.06-7.34-5.45-10.5-5.46Z" fill="#00afaf"/><path d="M554,218.66a1.54,1.54,0,1,1-1.54-1.54A1.55,1.55,0,0,1,554,218.66Z" fill="#00afaf"/><path d="M554,218.66a1.54,1.54,0,1,1-1.54-1.54A1.55,1.55,0,0,1,554,218.66Z" fill="#04688c"/><path d="M837.92,216.73c.52-.44,2.5-3.77,5.68,0,.34.18,1.23-.33,1.12-.68-3.72-5.42-8.35-.33-7.89.23S837.31,217.24,837.92,216.73Z" fill="#00afaf"/><path d="M840.83,213.58c-2.39,0-4.3,2.33-4,2.7s.42.68.65.68a.8.8,0,0,0,.44-.23c.34-.28,1.28-1.78,2.77-1.78.82,0,1.79.45,2.91,1.78a.48.48,0,0,0,.18,0c.4,0,1-.41.94-.71-1.27-1.85-2.64-2.47-3.89-2.47Z" fill="#00afaf"/><path d="M847,214.47c.69-.08,1.34-.55,1.15-1.16s-6.81-8.32-14.17.39a.52.52,0,0,0-.13.38.56.56,0,0,0,.19.36,1.28,1.28,0,0,0,1,.42C841.73,207.22,846.27,214.55,847,214.47Z" fill="#00afaf"/><path d="M841.26,209.58c-2.18,0-4.7,1-7.32,4.12a.52.52,0,0,0-.13.38.56.56,0,0,0,.19.36,1.41,1.41,0,0,0,.88.43H835c2.32-2.62,4.37-3.48,6.1-3.48,3.28,0,5.38,3.09,5.86,3.09h0c.69-.08,1.34-.55,1.15-1.16a9,9,0,0,0-6.85-3.73Z" fill="#00afaf"/><path d="M850.4,212.16c.49.1,1.5-.27,1.24-1.08-11.64-12.66-22,.61-21.63,1.15a1.24,1.24,0,0,0,1.46.37C840.74,200.71,849.91,212.06,850.4,212.16Z" fill="#00afaf"/><path d="M841.14,205.62c-6.69,0-11.39,6.24-11.13,6.61a1.25,1.25,0,0,0,1,.48.87.87,0,0,0,.46-.11c3.18-4.08,6.35-5.42,9.16-5.42,5.38,0,9.45,4.92,9.77,5l.17,0c.52,0,1.3-.37,1.07-1.1-3.73-4.06-7.34-5.45-10.5-5.46Z" fill="#00afaf"/><path d="M842.25,218.66a1.54,1.54,0,1,1-1.54-1.54A1.55,1.55,0,0,1,842.25,218.66Z" fill="#00afaf"/><path d="M842.25,218.66a1.54,1.54,0,1,1-1.54-1.54A1.55,1.55,0,0,1,842.25,218.66Z" fill="#04688c"/><path d="M976.86,216.73c.53-.44,2.51-3.77,5.69,0,.34.18,1.23-.33,1.11-.68-3.71-5.42-8.34-.33-7.89.23S976.25,217.24,976.86,216.73Z" fill="#00afaf"/><path d="M979.78,213.58c-2.4,0-4.3,2.33-4,2.7s.42.68.65.68a.77.77,0,0,0,.44-.23c.34-.28,1.29-1.78,2.78-1.78.81,0,1.78.45,2.91,1.78a.43.43,0,0,0,.17,0c.4,0,1-.41.94-.71-1.26-1.85-2.64-2.47-3.88-2.47Z" fill="#00afaf"/><path d="M985.91,214.47c.69-.08,1.34-.55,1.15-1.16s-6.81-8.32-14.18.39a.52.52,0,0,0,.07.74,1.26,1.26,0,0,0,1,.42C980.68,207.22,985.21,214.55,985.91,214.47Z" fill="#00afaf"/><path d="M980.2,209.58c-2.17,0-4.7,1-7.32,4.12a.52.52,0,0,0,.07.74,1.41,1.41,0,0,0,.88.43h.11c2.31-2.62,4.37-3.48,6.09-3.48,3.28,0,5.38,3.09,5.86,3.09h0c.69-.08,1.34-.55,1.15-1.16a9,9,0,0,0-6.86-3.73Z" fill="#00afaf"/><path d="M989.35,212.16c.49.1,1.5-.27,1.24-1.08-11.64-12.66-22,.61-21.63,1.15a1.24,1.24,0,0,0,1.46.37C979.69,200.71,988.86,212.06,989.35,212.16Z" fill="#00afaf"/><path d="M980.09,205.62c-6.69,0-11.39,6.24-11.13,6.61a1.22,1.22,0,0,0,1,.48.89.89,0,0,0,.46-.11c3.18-4.08,6.35-5.42,9.16-5.42,5.38,0,9.44,4.92,9.77,5l.17,0c.52,0,1.3-.37,1.07-1.1-3.74-4.06-7.34-5.45-10.5-5.46Z" fill="#00afaf"/><path d="M981.2,218.66a1.55,1.55,0,1,1-1.55-1.54A1.55,1.55,0,0,1,981.2,218.66Z" fill="#00afaf"/><path d="M981.2,218.66a1.55,1.55,0,1,1-1.55-1.54A1.55,1.55,0,0,1,981.2,218.66Z" fill="#04688c"/><path d="M695.76,257.17l5.83.47a10.73,10.73,0,0,1-.09,4.83c-.7,2-5.66,3.67-5.66,3.67l-.08-9" fill="#04688c"/><polyline points="695.76 257.17 701.59 257.64 697.19 258.49 695.85 266.1 695.76 257.17" fill="#00afaf"/><path d="M700.29,260.44a.7.7,0,0,0-.7-.71.71.71,0,0,0-.71.71.7.7,0,0,0,.71.7A.7.7,0,0,0,700.29,260.44Z" fill="#fff"/><path d="M706.88,258.22c.43.52,3.76,2.5,0,5.68-.18.34.32,1.23.67,1.12,5.42-3.72.34-8.35-.22-7.89S706.37,257.61,706.88,258.22Z" fill="#00afaf"/><path d="M707.43,257.1a.15.15,0,0,0-.1,0c-.56.45-1,.48-.45,1.09s3.76,2.5,0,5.68c-.17.32.26,1.13.61,1.13h.06c5.17-3.55.78-7.92-.12-7.92Z" fill="#00afaf"/><path d="M709.13,267.26c.09.69.56,1.34,1.16,1.15s8.33-6.81-.38-14.17a.56.56,0,0,0-.39-.13.51.51,0,0,0-.35.19,1.32,1.32,0,0,0-.43,1C716.39,262,709.05,266.57,709.13,267.26Z" fill="#00afaf"/><path d="M709.57,254.11h-.05a.51.51,0,0,0-.35.19,1.32,1.32,0,0,0-.43,1c7.65,6.74.31,11.28.39,12s.45,1.18,1,1.18l.21,0c.6-.19,8.33-6.81-.38-14.17a.55.55,0,0,0-.34-.13Z" fill="#00afaf"/><path d="M711.44,270.7c-.1.49.27,1.5,1.08,1.24,12.67-11.64-.61-22-1.14-21.63a1.23,1.23,0,0,0-.38,1.46C722.89,261,711.54,270.21,711.44,270.7Z" fill="#00afaf"/><path d="M711.42,250.3h0a1.23,1.23,0,0,0-.38,1.46c11.89,9.27.54,18.44.44,18.93s.2,1.28.83,1.28a.77.77,0,0,0,.25,0c12.44-11.43-.14-21.64-1.1-21.64Z" fill="#00afaf"/><path d="M704.94,262.55a1.54,1.54,0,1,1,1.54-1.54A1.54,1.54,0,0,1,704.94,262.55Z" fill="#00afaf"/><path d="M704.94,262.55a1.54,1.54,0,1,1,1.54-1.54A1.54,1.54,0,0,1,704.94,262.55Z" fill="#04688c"/><path d="M256.43,189.43a3.79,3.79,0,0,1,.25-1.35,3.55,3.55,0,0,1,.72-1.19,3.66,3.66,0,0,1,1.15-.85,3.57,3.57,0,0,1,1.56-.33,3.39,3.39,0,0,1,1.78.46,2.92,2.92,0,0,1,1.12,1.17l-1.11.77a1.9,1.9,0,0,0-.36-.53,1.78,1.78,0,0,0-.45-.34,1.84,1.84,0,0,0-.51-.19,2.94,2.94,0,0,0-.51-.05,1.91,1.91,0,0,0-.95.22,2.22,2.22,0,0,0-.68.57,2.73,2.73,0,0,0-.4.8,2.9,2.9,0,0,0,0,1.84,2.51,2.51,0,0,0,.45.8,2.21,2.21,0,0,0,.69.56,1.91,1.91,0,0,0,.89.21,2.37,2.37,0,0,0,.52-.06,1.83,1.83,0,0,0,.52-.21,1.7,1.7,0,0,0,.46-.35,1.62,1.62,0,0,0,.34-.52l1.18.69a2.05,2.05,0,0,1-.51.74,3.35,3.35,0,0,1-.74.54,3.79,3.79,0,0,1-.89.33,3.69,3.69,0,0,1-.92.12,3.08,3.08,0,0,1-1.46-.34,3.76,3.76,0,0,1-1.14-.87,4.19,4.19,0,0,1-.75-1.23A3.84,3.84,0,0,1,256.43,189.43Z" fill="#04688c"/><path d="M264,187v-1.4h1.41V187Zm0,6.27v-5.51h1.41v5.51Z" fill="#04688c"/><path d="M269.93,192.93a6.39,6.39,0,0,1-.69.26,3,3,0,0,1-.86.12,1.93,1.93,0,0,1-.55-.07,1.19,1.19,0,0,1-.46-.24,1.21,1.21,0,0,1-.31-.42A1.64,1.64,0,0,1,267,192v-3.17h-.73v-1.08H267v-1.78h1.41v1.78h1.15v1.08h-1.15v2.69a.51.51,0,0,0,.15.42.57.57,0,0,0,.37.12,1.55,1.55,0,0,0,.43-.07l.34-.13Z" fill="#04688c"/><path d="M270.78,194.29l.35.08.28,0a.58.58,0,0,0,.26,0,.67.67,0,0,0,.2-.18,1.4,1.4,0,0,0,.19-.37,4.56,4.56,0,0,0,.2-.57l-2.17-5.51h1.45L273,192l1.32-4.29h1.33l-2.31,6.6a2,2,0,0,1-.69.94,1.88,1.88,0,0,1-1.19.37l-.35,0-.36-.09Z" fill="#04688c"/><path d="M281,187.71a2.34,2.34,0,0,0-.27-.2,3.56,3.56,0,0,0-.48-.24,4.2,4.2,0,0,0-.6-.21A2.48,2.48,0,0,0,279,187a1.44,1.44,0,0,0-.89.22.71.71,0,0,0-.3.62.66.66,0,0,0,.11.38,1.09,1.09,0,0,0,.32.27,3.07,3.07,0,0,0,.53.21l.74.2c.37.1.7.2,1,.31a2.82,2.82,0,0,1,.75.42,1.67,1.67,0,0,1,.48.61,2,2,0,0,1,.17.86,2.21,2.21,0,0,1-.23,1,1.93,1.93,0,0,1-.61.69,2.7,2.7,0,0,1-.88.38,4.42,4.42,0,0,1-1,.12,5.52,5.52,0,0,1-1.66-.25,5,5,0,0,1-1.47-.72l.64-1.25a1.4,1.4,0,0,0,.34.25,5.14,5.14,0,0,0,.58.3,3.66,3.66,0,0,0,.75.26,3.34,3.34,0,0,0,.84.11c.8,0,1.19-.26,1.19-.77a.63.63,0,0,0-.13-.41,1.1,1.1,0,0,0-.39-.29,4.09,4.09,0,0,0-.61-.24l-.8-.23a5.28,5.28,0,0,1-.93-.32,2.19,2.19,0,0,1-.65-.41,1.49,1.49,0,0,1-.4-.54,1.88,1.88,0,0,1-.13-.74,2.31,2.31,0,0,1,.21-1,2,2,0,0,1,.58-.74,2.74,2.74,0,0,1,.87-.44,3.62,3.62,0,0,1,1.06-.15,4.2,4.2,0,0,1,1.45.24,5.47,5.47,0,0,1,1.16.59Z" fill="#04688c"/><path d="M285.44,193.32a3.09,3.09,0,0,1-1.2-.22,2.67,2.67,0,0,1-.91-.62,2.7,2.7,0,0,1-.59-.9,3.08,3.08,0,0,1-.2-1.08,2.88,2.88,0,0,1,.2-1.11,2.61,2.61,0,0,1,.58-.92,2.67,2.67,0,0,1,.91-.62,3,3,0,0,1,1.22-.23,2.86,2.86,0,0,1,1.2.23,2.7,2.7,0,0,1,1.47,1.52,3,3,0,0,1,.2,1.07c0,.09,0,.18,0,.27a.66.66,0,0,1,0,.21H284a1.46,1.46,0,0,0,.16.57,1.38,1.38,0,0,0,.32.43,1.78,1.78,0,0,0,.45.28,1.6,1.6,0,0,0,.53.09,1.68,1.68,0,0,0,.79-.2,1.1,1.1,0,0,0,.51-.54l1.21.33a2.48,2.48,0,0,1-1,1A3,3,0,0,1,285.44,193.32Zm1.43-3.32a1.49,1.49,0,0,0-.46-1,1.39,1.39,0,0,0-1-.37,1.32,1.32,0,0,0-.53.1,1.25,1.25,0,0,0-.44.27,1.53,1.53,0,0,0-.45,1Z" fill="#04688c"/><path d="M294.29,193.22h-1.4v-3.09a1.59,1.59,0,0,0-.24-1,.75.75,0,0,0-.64-.3,1.12,1.12,0,0,0-.43.08,1.91,1.91,0,0,0-.41.24,1.71,1.71,0,0,0-.35.36,1.35,1.35,0,0,0-.24.46v3.22h-1.4v-5.51h1.27v1a2.12,2.12,0,0,1,.88-.82,2.79,2.79,0,0,1,1.3-.29,1.58,1.58,0,0,1,.84.19,1.34,1.34,0,0,1,.51.49,1.88,1.88,0,0,1,.24.69,4.22,4.22,0,0,1,.07.79Z" fill="#04688c"/><path d="M297.6,193.32a4.15,4.15,0,0,1-1.35-.22,3.5,3.5,0,0,1-1.14-.63l.53-.88a4.17,4.17,0,0,0,1,.54,2.71,2.71,0,0,0,.95.18,1.15,1.15,0,0,0,.66-.16.5.5,0,0,0,.24-.45.45.45,0,0,0-.28-.43,6.77,6.77,0,0,0-.92-.31,9.32,9.32,0,0,1-.92-.29,2.31,2.31,0,0,1-.61-.31,1,1,0,0,1-.33-.4,1.27,1.27,0,0,1-.11-.54,1.8,1.8,0,0,1,.16-.75,1.61,1.61,0,0,1,.46-.57,2.29,2.29,0,0,1,.69-.37,2.93,2.93,0,0,1,.86-.12,3.66,3.66,0,0,1,1.16.18,2.75,2.75,0,0,1,1,.57l-.57.85a3.38,3.38,0,0,0-.81-.46,2.2,2.2,0,0,0-.78-.15,1.11,1.11,0,0,0-.6.15.52.52,0,0,0-.24.47.49.49,0,0,0,.05.25.44.44,0,0,0,.19.16,1.75,1.75,0,0,0,.33.15l.51.14c.38.1.7.19,1,.29a2.53,2.53,0,0,1,.66.34,1.18,1.18,0,0,1,.38.43,1.4,1.4,0,0,1,.12.6,1.52,1.52,0,0,1-.6,1.27A2.53,2.53,0,0,1,297.6,193.32Z" fill="#04688c"/><path d="M303.3,193.32a3.09,3.09,0,0,1-1.2-.22,2.71,2.71,0,0,1-1.5-1.52,3.1,3.1,0,0,1,0-2.19,2.74,2.74,0,0,1,.57-.92,2.82,2.82,0,0,1,.92-.62,3,3,0,0,1,1.22-.23,2.89,2.89,0,0,1,1.2.23,2.73,2.73,0,0,1,.9.62,2.65,2.65,0,0,1,.57.9,3,3,0,0,1,.19,1.07v.27a.66.66,0,0,1,0,.21h-4.25a1.46,1.46,0,0,0,.16.57,1.38,1.38,0,0,0,.32.43,1.62,1.62,0,0,0,.45.28,1.6,1.6,0,0,0,.53.09,1.68,1.68,0,0,0,.79-.2,1.1,1.1,0,0,0,.51-.54l1.21.33a2.48,2.48,0,0,1-1,1A3,3,0,0,1,303.3,193.32Zm1.43-3.32a1.49,1.49,0,0,0-.46-1,1.39,1.39,0,0,0-1-.37,1.32,1.32,0,0,0-.53.1,1.25,1.25,0,0,0-.44.27,1.53,1.53,0,0,0-.45,1Z" fill="#04688c"/><path d="M410.14,187.71a2.34,2.34,0,0,0-.27-.2,4.07,4.07,0,0,0-.47-.24,4.84,4.84,0,0,0-.61-.21,2.48,2.48,0,0,0-.66-.08,1.44,1.44,0,0,0-.89.22.71.71,0,0,0-.3.62.66.66,0,0,0,.11.38,1.09,1.09,0,0,0,.32.27,3.07,3.07,0,0,0,.53.21l.74.2c.37.1.7.2,1,.31a2.67,2.67,0,0,1,.75.42,1.67,1.67,0,0,1,.48.61,2,2,0,0,1,.17.86,2.21,2.21,0,0,1-.23,1,2,2,0,0,1-.6.69,2.75,2.75,0,0,1-.89.38,4.42,4.42,0,0,1-1,.12,5.52,5.52,0,0,1-1.66-.25,5,5,0,0,1-1.47-.72l.64-1.25a1.4,1.4,0,0,0,.34.25,5.14,5.14,0,0,0,.58.3,3.88,3.88,0,0,0,.75.26,3.34,3.34,0,0,0,.84.11c.8,0,1.2-.26,1.2-.77a.64.64,0,0,0-.14-.41,1.1,1.1,0,0,0-.39-.29,4.09,4.09,0,0,0-.61-.24l-.8-.23a5.92,5.92,0,0,1-.93-.32,2.19,2.19,0,0,1-.65-.41,1.49,1.49,0,0,1-.4-.54,2.08,2.08,0,0,1-.13-.74,2.31,2.31,0,0,1,.21-1,2.12,2.12,0,0,1,.58-.74,2.74,2.74,0,0,1,.87-.44,3.62,3.62,0,0,1,1.06-.15,4.2,4.2,0,0,1,1.45.24,5.47,5.47,0,0,1,1.16.59Z" fill="#04688c"/><path d="M415.76,193.22l-1.6-2.39-.76.75v1.64H412v-7.67h1.4v4.65l2.21-2.48h1.5l-2.05,2.33,2.2,3.17Z" fill="#04688c"/><path d="M418,194.29l.35.08.28,0a.58.58,0,0,0,.26,0,.84.84,0,0,0,.21-.18,2.47,2.47,0,0,0,.19-.37c.06-.15.12-.34.2-.57l-2.18-5.51h1.45l1.49,4.29,1.33-4.29h1.32l-2.31,6.6a2,2,0,0,1-.69.94,1.88,1.88,0,0,1-1.19.37l-.34,0-.37-.09Z" fill="#04688c"/><path d="M423.77,193.22v-7.46h1.45V192H429v1.27Z" fill="#04688c"/><path d="M429.77,187v-1.4h1.41V187Zm0,6.27v-5.51h1.41v5.51Z" fill="#04688c"/><path d="M435.75,192.93a5.89,5.89,0,0,1-.7.26,3,3,0,0,1-.86.12,2,2,0,0,1-.55-.07,1.17,1.17,0,0,1-.76-.66,1.46,1.46,0,0,1-.12-.62v-3.17H432v-1.08h.72v-1.78h1.41v1.78h1.16v1.08h-1.16v2.69a.51.51,0,0,0,.15.42.62.62,0,0,0,.38.12,1.61,1.61,0,0,0,.43-.07l.33-.13Z" fill="#04688c"/><path d="M439,193.32a3.09,3.09,0,0,1-1.2-.22,2.71,2.71,0,0,1-1.5-1.52,3.08,3.08,0,0,1-.2-1.08,2.88,2.88,0,0,1,.2-1.11,2.74,2.74,0,0,1,.57-.92,2.82,2.82,0,0,1,.92-.62,3,3,0,0,1,1.22-.23,2.86,2.86,0,0,1,1.2.23,2.73,2.73,0,0,1,.9.62,2.65,2.65,0,0,1,.57.9,3,3,0,0,1,.2,1.07c0,.09,0,.18,0,.27a.66.66,0,0,1,0,.21h-4.25a1.46,1.46,0,0,0,.16.57,1.38,1.38,0,0,0,.32.43,1.78,1.78,0,0,0,.45.28,1.6,1.6,0,0,0,.53.09,1.68,1.68,0,0,0,.79-.2,1.1,1.1,0,0,0,.51-.54l1.21.33a2.48,2.48,0,0,1-1,1A3,3,0,0,1,439,193.32Zm1.43-3.32a1.49,1.49,0,0,0-.46-1,1.39,1.39,0,0,0-1-.37,1.32,1.32,0,0,0-.53.1,1.25,1.25,0,0,0-.44.27,1.53,1.53,0,0,0-.45,1Z" fill="#04688c"/><path d="M338.48,294v4.78H337v-7.46h1.13l3.88,4.89v-4.88h1.45v7.45h-1.17Z" fill="#04688c"/><path d="M347.46,298.83a3,3,0,0,1-1.19-.22,2.71,2.71,0,0,1-.92-.62,2.84,2.84,0,0,1-.58-.9,2.88,2.88,0,0,1-.21-1.08,3.08,3.08,0,0,1,.2-1.11,2.93,2.93,0,0,1,.58-.92,2.71,2.71,0,0,1,.92-.62,3,3,0,0,1,1.22-.23,2.92,2.92,0,0,1,1.2.23,2.73,2.73,0,0,1,.9.62,2.65,2.65,0,0,1,.57.9,3,3,0,0,1,.19,1.07v.26a1.17,1.17,0,0,1,0,.22h-4.25a1.65,1.65,0,0,0,.15.57,1.59,1.59,0,0,0,.33.43,1.48,1.48,0,0,0,.45.28,1.55,1.55,0,0,0,.53.09,1.68,1.68,0,0,0,.79-.2,1.1,1.1,0,0,0,.51-.54l1.21.33a2.54,2.54,0,0,1-1,1A3,3,0,0,1,347.46,298.83Zm1.43-3.32a1.44,1.44,0,0,0-.45-1,1.49,1.49,0,0,0-1.52-.27,1.21,1.21,0,0,0-.43.27,1.53,1.53,0,0,0-.45,1Z" fill="#04688c"/><path d="M351.2,292.46v-1.4h1.41v1.4Zm0,6.27v-5.51h1.41v5.51Z" fill="#04688c"/><path d="M356,298.76a2.37,2.37,0,0,1-1-.22,2.43,2.43,0,0,1-.78-.61,2.38,2.38,0,0,1-.51-.89,3.12,3.12,0,0,1-.18-1.07,3.08,3.08,0,0,1,.19-1.11,2.87,2.87,0,0,1,.52-.9,2.4,2.4,0,0,1,1.85-.83,2.06,2.06,0,0,1,1.12.29,2.36,2.36,0,0,1,.8.77v-1h1.23v5.24a2.46,2.46,0,0,1-.23,1.1,2.4,2.4,0,0,1-.63.82,3,3,0,0,1-1,.51,4,4,0,0,1-1.22.18,3.43,3.43,0,0,1-1.52-.3,3.09,3.09,0,0,1-1.06-.85l.77-.74a2.18,2.18,0,0,0,.79.61,2.53,2.53,0,0,0,1,.22,2.16,2.16,0,0,0,.62-.09,1.42,1.42,0,0,0,.53-.28,1.32,1.32,0,0,0,.36-.48,1.68,1.68,0,0,0,.13-.7v-.69a1.79,1.79,0,0,1-.76.73A2.28,2.28,0,0,1,356,298.76Zm.47-1.13a1.31,1.31,0,0,0,.44-.07,1.44,1.44,0,0,0,.39-.2,1.42,1.42,0,0,0,.31-.29,1,1,0,0,0,.21-.36V295.4a1.6,1.6,0,0,0-.59-.78,1.39,1.39,0,0,0-.84-.3,1.15,1.15,0,0,0-.59.15,1.36,1.36,0,0,0-.45.37,1.57,1.57,0,0,0-.29.54,2,2,0,0,0-.1.64,1.61,1.61,0,0,0,.43,1.14,1.65,1.65,0,0,0,.48.35A1.46,1.46,0,0,0,356.51,297.63Z" fill="#04688c"/><path d="M365.66,298.73h-1.41v-3.09a1.54,1.54,0,0,0-.24-1,.81.81,0,0,0-.68-.31,1,1,0,0,0-.4.08,1.63,1.63,0,0,0-.4.24,2,2,0,0,0-.35.36,1.53,1.53,0,0,0-.23.46v3.22h-1.41v-7.67H362v3.18a2,2,0,0,1,.83-.82,2.24,2.24,0,0,1,1.15-.29,1.87,1.87,0,0,1,.87.18,1.37,1.37,0,0,1,.52.49,1.92,1.92,0,0,1,.27.69,5.29,5.29,0,0,1,.07.8Z" fill="#04688c"/><path d="M370,298.83a2.23,2.23,0,0,1-1.13-.28,2.13,2.13,0,0,1-.77-.78v1h-1.23v-7.67h1.41v3.13a2.09,2.09,0,0,1,.77-.79,2.24,2.24,0,0,1,1.12-.27,2,2,0,0,1,1,.23,2.42,2.42,0,0,1,.77.62,2.94,2.94,0,0,1,.49.91,3.38,3.38,0,0,1,.17,1.1,3.14,3.14,0,0,1-.19,1.12,2.92,2.92,0,0,1-.54.9,2.71,2.71,0,0,1-.82.6A2.37,2.37,0,0,1,370,298.83Zm-.39-1.2a1.44,1.44,0,0,0,.62-.13,1.42,1.42,0,0,0,.48-.35,1.44,1.44,0,0,0,.31-.52,1.59,1.59,0,0,0,.11-.62,1.91,1.91,0,0,0-.1-.64,1.57,1.57,0,0,0-.3-.54,1.37,1.37,0,0,0-.46-.37,1.24,1.24,0,0,0-.58-.14,1.32,1.32,0,0,0-.84.31,2.07,2.07,0,0,0-.57.77v1.31a1.41,1.41,0,0,0,.21.38,2.21,2.21,0,0,0,.32.29,1.38,1.38,0,0,0,.39.18A1.22,1.22,0,0,0,369.63,297.63Z" fill="#04688c"/><path d="M376.09,298.83a3.11,3.11,0,0,1-1.21-.23A2.65,2.65,0,0,1,374,298a2.81,2.81,0,0,1-.57-.9,3.1,3.1,0,0,1-.2-1.09,3.06,3.06,0,0,1,.2-1.09A3,3,0,0,1,374,294a2.77,2.77,0,0,1,.91-.62,2.94,2.94,0,0,1,1.21-.23,2.86,2.86,0,0,1,1.2.23,2.67,2.67,0,0,1,.91.62,2.79,2.79,0,0,1,.57.91A3.06,3.06,0,0,1,379,296a3.1,3.1,0,0,1-.2,1.09,2.65,2.65,0,0,1-.57.9,2.44,2.44,0,0,1-.9.63A3.11,3.11,0,0,1,376.09,298.83ZM374.65,296a2,2,0,0,0,.11.67,1.79,1.79,0,0,0,.31.52,1.34,1.34,0,0,0,.45.34,1.38,1.38,0,0,0,1.6-.34,1.77,1.77,0,0,0,.3-.52,2.11,2.11,0,0,0,.11-.68,2.08,2.08,0,0,0-.11-.66,1.65,1.65,0,0,0-.3-.52,1.38,1.38,0,0,0-.46-.34,1.31,1.31,0,0,0-1.14,0,1.52,1.52,0,0,0-.45.35,1.67,1.67,0,0,0-.31.52A2.08,2.08,0,0,0,374.65,296Z" fill="#04688c"/><path d="M383.19,294.44a2.77,2.77,0,0,0-1.14.25,1.41,1.41,0,0,0-.73.71v3.33h-1.41v-5.51h1.3v1.18a2.27,2.27,0,0,1,.34-.51,4,4,0,0,1,.43-.4,2.15,2.15,0,0,1,.47-.25,1.29,1.29,0,0,1,.46-.09h.28Z" fill="#04688c"/><path d="M347.69,305.14h-2.38v6.19h-1.44v-6.19h-2.39v-1.27h6.21Z" fill="#04688c"/><path d="M351.76,307.05a2.66,2.66,0,0,0-1.15.24,1.42,1.42,0,0,0-.72.71v3.33h-1.41v-5.5h1.29V307a2.3,2.3,0,0,1,.35-.51,2.27,2.27,0,0,1,.43-.39,2.14,2.14,0,0,1,.46-.26,1.29,1.29,0,0,1,.46-.09h.17l.12,0Z" fill="#04688c"/><path d="M352.54,305.06v-1.4H354v1.4Zm0,6.27v-5.5H354v5.5Z" fill="#04688c"/><path d="M357.38,311.36a2.21,2.21,0,0,1-1-.22,2.55,2.55,0,0,1-.79-.6,2.6,2.6,0,0,1-.5-.89,3.12,3.12,0,0,1-.18-1.07,3.08,3.08,0,0,1,.19-1.11,2.81,2.81,0,0,1,.52-.91,2.34,2.34,0,0,1,.81-.61,2.55,2.55,0,0,1,1-.22,2.15,2.15,0,0,1,1.12.29,2.36,2.36,0,0,1,.8.77v-1h1.23v5.24a2.53,2.53,0,0,1-.23,1.09,2.43,2.43,0,0,1-.63.82,2.83,2.83,0,0,1-1,.52,4,4,0,0,1-1.23.18,3.41,3.41,0,0,1-1.51-.3,3.12,3.12,0,0,1-1.06-.85l.77-.74a2.16,2.16,0,0,0,.79.6,2.36,2.36,0,0,0,1,.22,2.59,2.59,0,0,0,.63-.08,1.78,1.78,0,0,0,.53-.28,1.39,1.39,0,0,0,.36-.49,1.6,1.6,0,0,0,.13-.69v-.69a1.85,1.85,0,0,1-.76.73A2.3,2.3,0,0,1,357.38,311.36Zm.47-1.12a1.62,1.62,0,0,0,.44-.07,1.79,1.79,0,0,0,.39-.2,1.47,1.47,0,0,0,.31-.3,1.41,1.41,0,0,0,.21-.35V308a1.7,1.7,0,0,0-.59-.78,1.45,1.45,0,0,0-.85-.29,1.24,1.24,0,0,0-.58.14,1.53,1.53,0,0,0-.46.38,1.73,1.73,0,0,0-.28.54,1.93,1.93,0,0,0-.1.63,1.61,1.61,0,0,0,.11.63,1.82,1.82,0,0,0,.32.52,1.61,1.61,0,0,0,.48.34A1.32,1.32,0,0,0,357.85,310.24Z" fill="#04688c"/><path d="M364,311.36a2.23,2.23,0,0,1-1-.22,2.4,2.4,0,0,1-.78-.6,2.46,2.46,0,0,1-.51-.89,3.12,3.12,0,0,1-.18-1.07,3.08,3.08,0,0,1,.19-1.11,2.81,2.81,0,0,1,.52-.91,2.4,2.4,0,0,1,1.85-.83,2.15,2.15,0,0,1,1.12.29,2.36,2.36,0,0,1,.8.77v-1h1.23v5.24a2.53,2.53,0,0,1-.23,1.09,2.43,2.43,0,0,1-.63.82,2.83,2.83,0,0,1-1,.52,4,4,0,0,1-1.23.18,3.41,3.41,0,0,1-1.51-.3,3.21,3.21,0,0,1-1.06-.85l.77-.74a2.16,2.16,0,0,0,.79.6,2.36,2.36,0,0,0,1,.22,2.59,2.59,0,0,0,.63-.08,1.78,1.78,0,0,0,.53-.28,1.39,1.39,0,0,0,.36-.49,1.6,1.6,0,0,0,.13-.69v-.69a1.85,1.85,0,0,1-.76.73A2.3,2.3,0,0,1,364,311.36Zm.47-1.12a1.62,1.62,0,0,0,.44-.07,1.79,1.79,0,0,0,.39-.2,1.47,1.47,0,0,0,.31-.3,1.16,1.16,0,0,0,.21-.35V308a1.7,1.7,0,0,0-.59-.78,1.45,1.45,0,0,0-.85-.29,1.24,1.24,0,0,0-.58.14,1.53,1.53,0,0,0-.46.38,1.73,1.73,0,0,0-.28.54,1.93,1.93,0,0,0-.1.63,1.61,1.61,0,0,0,.11.63,1.82,1.82,0,0,0,.32.52,1.61,1.61,0,0,0,.48.34A1.32,1.32,0,0,0,364.51,310.24Z" fill="#04688c"/><path d="M371.1,311.44a3,3,0,0,1-1.2-.23,2.77,2.77,0,0,1-1.7-2.6,3,3,0,0,1,.2-1.11,2.69,2.69,0,0,1,.57-.91,3,3,0,0,1,.92-.63,3.16,3.16,0,0,1,1.22-.23,3.06,3.06,0,0,1,1.2.23,2.89,2.89,0,0,1,.9.62,2.6,2.6,0,0,1,.57.91,3,3,0,0,1,.19,1.07v.26a1,1,0,0,1,0,.21h-4.25a1.51,1.51,0,0,0,.16.58,1.38,1.38,0,0,0,.32.43,1.29,1.29,0,0,0,.45.27,1.39,1.39,0,0,0,.53.1,1.58,1.58,0,0,0,.79-.21,1,1,0,0,0,.51-.54l1.21.34a2.45,2.45,0,0,1-1,1A3,3,0,0,1,371.1,311.44Zm1.42-3.32a1.46,1.46,0,0,0-.45-1,1.44,1.44,0,0,0-1-.37,1.61,1.61,0,0,0-.53.1,1.39,1.39,0,0,0-.43.28,1.35,1.35,0,0,0-.31.43,1.44,1.44,0,0,0-.14.56Z" fill="#04688c"/><path d="M378.11,307.05a2.61,2.61,0,0,0-1.14.24,1.48,1.48,0,0,0-.73.71v3.33h-1.41v-5.5h1.3V307a2.66,2.66,0,0,1,.34-.51,3.1,3.1,0,0,1,.43-.39,2.2,2.2,0,0,1,.47-.26,1.29,1.29,0,0,1,.46-.09H378l.11,0Z" fill="#04688c"/><path d="M350.16,251.18l-1.77,10.89a2.07,2.07,0,0,1-.19.76,2.46,2.46,0,0,1-.65.54s-.08,0-.12,0a2.7,2.7,0,0,1-3.49-1.71c-.11,0-.18.06-.18.08-.15.95-.83,1.12-1.62,1.09-1.35-.05-2.69-.11-4-.21-.18,0-.34-.27-.5-.41.16-.13.31-.35.48-.37,1.15-.13,2.31-.26,3.47-.3.59,0,1-.11,1.2-.75a1.94,1.94,0,0,1,.22-.43c.51-.87,1-.86,1.57,0,.29.44.65.84.92,1.3a1,1,0,0,0,1.36.48.68.68,0,0,0,.4-.46c.67-4.28,1.3-8.57,1.95-12.85.13-.89.27-1.78.43-2.67.07-.39.18-.79.69-.78s.61.39.66.8q.74,6.58,1.49,13.16c.17,1.51.33,3,.5,4.51a4.35,4.35,0,0,0,.13.44c.37-2.08.69-4,1-5.93.16-.86.35-1.72.58-2.56.12-.44.35-.88.91-.85s.77.5.87,1c.46,2.2.9,4.41,1.35,6.61l.14.62.25-.45a1.6,1.6,0,0,1,2.09-1c1,.2,1,.16,1.52-.67.17-.28.32-.57.5-.85a1.3,1.3,0,0,1,2.25-.14,1.15,1.15,0,0,1,.25.34c.35,1.33,1.38,1.47,2.5,1.48l5.52,0,.8,0c.45,0,.77.19.76.69s-.34.6-.76.6c-2.27,0-4.54,0-6.81-.07a2.83,2.83,0,0,1-3-1.93,2.6,2.6,0,0,0-.32-.46c-.25.44-.46.81-.68,1.17a2,2,0,0,1-2.57,1.09.67.67,0,0,0-.95.53c-.24.8-.51,1.59-.74,2.4-.12.44-.28.87-.81.84s-.75-.41-.83-.91c-.4-2.34-.81-4.67-1.22-7,0-.11-.05-.22-.13-.52-.54,3.17-1.05,6.16-1.55,9.14a2.79,2.79,0,0,1-.14.84c-.14.28-.42.63-.66.66a1,1,0,0,1-.78-.5,13.84,13.84,0,0,1-.64-2.67c-.45-3.78-.85-7.56-1.26-11.34-.11-1.09-.21-2.18-.32-3.27Z" fill="#d2d2d2"/><path d="M501,251.18q-.89,5.44-1.78,10.89a1.89,1.89,0,0,1-.19.76,2.42,2.42,0,0,1-.64.54s-.08,0-.12,0a2.7,2.7,0,0,1-3.49-1.71c-.12,0-.18.06-.19.08-.14.95-.83,1.12-1.62,1.09-1.34-.05-2.69-.11-4-.21-.17,0-.33-.27-.5-.41.16-.13.31-.35.49-.37,1.15-.13,2.31-.26,3.47-.3.58,0,1-.11,1.2-.75a1.9,1.9,0,0,1,.21-.43c.52-.87,1-.86,1.58,0,.28.44.65.84.92,1.3a1,1,0,0,0,1.35.48.72.72,0,0,0,.41-.46q1-6.42,1.94-12.85c.14-.89.28-1.78.43-2.67.07-.39.18-.79.7-.78s.61.39.65.8q.75,6.58,1.49,13.16l.51,4.51a2.65,2.65,0,0,0,.13.44c.36-2.08.69-4,1-5.93.16-.86.34-1.72.57-2.56.12-.44.35-.88.91-.85s.78.5.88,1c.46,2.2.9,4.41,1.35,6.61,0,.17.08.35.14.62l.24-.45a1.61,1.61,0,0,1,2.1-1c1,.2,1,.16,1.52-.67.17-.28.31-.57.5-.85a1.29,1.29,0,0,1,2.24-.14.88.88,0,0,1,.25.34c.35,1.33,1.39,1.47,2.5,1.48l5.53,0,.8,0c.45,0,.76.19.75.69s-.33.6-.76.6c-2.27,0-4.54,0-6.81-.07a2.83,2.83,0,0,1-3-1.93,2.6,2.6,0,0,0-.32-.46c-.26.44-.46.81-.68,1.17a2,2,0,0,1-2.57,1.09.67.67,0,0,0-.95.53c-.25.8-.51,1.59-.74,2.4-.13.44-.29.87-.81.84s-.75-.41-.84-.91c-.39-2.34-.8-4.67-1.21-7,0-.11-.06-.22-.13-.52l-1.56,9.14a2.51,2.51,0,0,1-.13.84c-.15.28-.42.63-.67.66a1,1,0,0,1-.77-.5,13.87,13.87,0,0,1-.65-2.67c-.45-3.78-.84-7.56-1.25-11.34-.12-1.09-.22-2.18-.33-3.27Z" fill="#d2d2d2"/><path d="M208.21,251.18q-.89,5.44-1.78,10.89a1.89,1.89,0,0,1-.19.76,2.59,2.59,0,0,1-.64.54s-.09,0-.12,0a2.69,2.69,0,0,1-3.49-1.71c-.12,0-.18.06-.19.08-.14.95-.83,1.12-1.62,1.09-1.34-.05-2.69-.11-4-.21-.18,0-.33-.27-.5-.41.16-.13.31-.35.48-.37,1.16-.13,2.32-.26,3.48-.3.58,0,1-.11,1.19-.75a1.94,1.94,0,0,1,.22-.43c.52-.87,1-.86,1.58,0,.28.44.65.84.92,1.3a1,1,0,0,0,1.35.48.72.72,0,0,0,.41-.46q1-6.42,1.94-12.85c.14-.89.28-1.78.43-2.67.07-.39.18-.79.7-.78s.61.39.65.8q.75,6.58,1.49,13.16l.51,4.51a3.51,3.51,0,0,0,.12.44c.37-2.08.69-4,1-5.93.15-.86.34-1.72.57-2.56.12-.44.35-.88.91-.85s.78.5.88,1c.46,2.2.9,4.41,1.34,6.61,0,.17.08.35.15.62l.24-.45a1.61,1.61,0,0,1,2.1-1c.95.2,1,.16,1.52-.67.16-.28.31-.57.49-.85a1.3,1.3,0,0,1,2.25-.14.88.88,0,0,1,.25.34c.35,1.33,1.39,1.47,2.5,1.48l5.53,0,.79,0c.46,0,.77.19.76.69s-.34.6-.76.6c-2.27,0-4.54,0-6.81-.07a2.85,2.85,0,0,1-3-1.93,2,2,0,0,0-.31-.46c-.26.44-.46.81-.69,1.17A2,2,0,0,1,218.3,263a.67.67,0,0,0-1,.53c-.25.8-.52,1.59-.74,2.4-.13.44-.29.87-.81.84s-.75-.41-.84-.91c-.4-2.34-.81-4.67-1.21-7,0-.11-.06-.22-.14-.52-.53,3.17-1,6.16-1.55,9.14a3.15,3.15,0,0,1-.13.84c-.15.28-.42.63-.67.66a1,1,0,0,1-.78-.5,14.62,14.62,0,0,1-.64-2.67c-.45-3.78-.84-7.56-1.25-11.34-.12-1.09-.22-2.18-.33-3.27Z" fill="#d2d2d2"/><polygon points="141.24 221.94 68.73 591.99 263.28 591.99 153.29 221.94 150.56 219.55 141.24 221.94" opacity="0.8" fill="url(#linear-gradient-13)" style="mix-blend-mode:multiply"/><path d="M121.13,467.6c0-7.84,0-204.68,0-212.52V229.83c0-1.6.48-2,2.07-1.92,1.28.06,1.57.75,1.56,1.92q0,17.41,0,34.82c0,4.65,0,198.3.06,203Z" fill="#04688c"/><path d="M119.82,228.94a4.89,4.89,0,0,1-2.49-4.09c0-.34.56-1,1-1.11,4.8-1.65,9.57-3.42,14.46-4.77s10.05-2.35,15.1-3.44c4.64-1,8.68,0,11.9,3.69,1.56,1.78,1.38,2.45-.94,2.92-4.06.83-8.16,1.52-12.21,2.42a21,21,0,0,0-5.57,1.91c-2.88,1.6-6,2.05-9.13,2.57a46.77,46.77,0,0,1-4.87.53,1.23,1.23,0,0,1-1-.63,2.63,2.63,0,0,0-2.9-2.28c-2,0-2.82.47-3.34,2.28m36.92-7.8c0-.14,0-.29,0-.43-2.07-2.05-4.09-4.11-7.49-3.37-2.71.58-5.46,1-8.18,1.52-1.41.27-2.82.58-4.22.87,0,.15,0,.31-.08.46,1.8.88,3.56,1.85,5.41,2.6a5.93,5.93,0,0,0,2.72.23c2.23-.24,4.45-.61,6.66-1,1.72-.28,3.43-.61,5.14-.92" fill="#04688c"/><path d="M126.24,478.4h-6.49a1.15,1.15,0,0,1-1.16-1.15V389.54l2.54-2.54,3.7,0,2.56,2.56v87.71a1.15,1.15,0,0,1-1.15,1.15" fill="url(#linear-gradient-14)"/><rect x="106.9" y="476.54" width="32.18" height="1.87" fill="#04688c"/><polygon points="807.54 489.01 642.64 489.01 654.92 480.78 819.83 480.78 807.54 489.01" fill="#fff"/><polygon points="785.44 503.82 620.53 503.82 632.81 495.59 797.72 495.59 785.44 503.82" fill="#fff"/><polygon points="763.33 518.63 598.42 518.63 610.71 510.4 775.61 510.4 763.33 518.63" fill="#fff"/><polygon points="741.23 533.44 576.32 533.44 588.6 525.21 753.51 525.21 741.23 533.44" fill="#fff"/><polygon points="719.12 548.25 554.21 548.25 566.49 540.02 731.4 540.02 719.12 548.25" fill="#fff"/><polygon points="697.01 563.06 532.11 563.06 544.39 554.83 709.29 554.83 697.01 563.06" fill="#fff"/><polygon points="674.91 577.87 510 577.87 522.28 569.64 687.19 569.64 674.91 577.87" fill="#fff"/><polygon points="652.8 592.68 487.89 592.68 500.18 584.45 665.08 584.45 652.8 592.68" fill="#fff"/><polygon points="630.69 607.49 465.79 607.49 478.07 599.26 642.98 599.26 630.69 607.49" fill="#fff"/></g><path d="M338.32,541.47c0,.83-19.65,1.51-43.89,1.51s-43.9.45-43.9-1.51c0-.55,8.34-.65,20.86-.92,6.69-.14,18.09-1.67,26.54-1.67C322.17,538.88,338.32,540.63,338.32,541.47Z" fill="#d9cac4" style="mix-blend-mode:multiply"/><path d="M413.22,541.47c0,.83-19.65,1.51-43.9,1.51s-43.89.45-43.89-1.51c0-.55,8.34-.65,20.86-.92,6.69-.14,18.09-1.67,26.54-1.67C397.07,538.88,413.22,540.63,413.22,541.47Z" fill="#d9cac4" style="mix-blend-mode:multiply"/><path d="M345.4,476.3c.28,1.27,5,.37,6.8.16,6.14-.71,12.35-.3,18.51-.67,5.24-.32,10.5-.91,15.64.52,5.37,1.49,10.63,3.08,16.13,4.08,4.33.79,11.51,1.69,14.72,1.46,2.34-.17,3.49-4.32,1.62-5.26a16.61,16.61,0,0,0-6-1.3c-10.71-.61-20.62-5.17-31.38-4.7-5.56.25-11.09,1-16.66,1.09s-11-.38-16.47.55C345.53,472.77,344.82,473.68,345.4,476.3Z" fill="#79bbf2"/><path d="M389.85,457.23c0,3.53-.76,12.89.17,14.83,1.07,2.21,11.09,4.13,13.19,4.53,2.85.54,15.09,2.61,17.25,1.26,1.83-1.14,2.69-3.15,3.55-5.08,1.21-2.75,1-5.69,1-8.57,0-.72.11-2-.57-2.55a4.74,4.74,0,0,0-2.1-.82c-1.17-.29-1-1.88-1.17-3.51-.24-2.41-.46-4.34-1-7.18-1-5.61-12.21-9.95-24.42-13.62-3-.89-7.48-.17-7.61,2.5C388,442.15,389.69,446.71,389.85,457.23Z" fill="#f9b233"/><path d="M345.28,473.91c5.16-.32,25.56-1.59,31.15-1.78,5-.17,10,.19,11.25-.47,1.73-.94,1.37-9,.5-10.69-1.28-2.52-4.8-1.08-5.62,1.25-.52,1.44-1.06,4.52-2.33,5.12s-5,.88-6.29.93c-4.5.18-9.19.43-13.65.8-2.74.23-14.23,1.18-15.67,2.62C344.07,472.26,343.49,474,345.28,473.91Z" fill="#e66045"/><path d="M344.69,481a76.86,76.86,0,0,0,.27,9.84c.36,2.84,1.3,4.1,4.19,4.56a70,70,0,0,0,10.74.41c6.65,0,54.79.12,55.8-.15,2.53-.68,2.6-4.15,2.89-6.2a48.84,48.84,0,0,0,.59-8.39c-.12-1.82-2.76-1.92-4.69-2.09-2.71-.25-5.42-.45-8.12-.76-6.65-.76-12.79-2.72-19.29-4.1-6.28-1.34-13.07-.44-19.43-.22-6.92.23-13.48.33-20.53.91C344.34,475.07,344.69,478.85,344.69,481Z" fill="#e66045"/><path d="M380.29,494.25a1.45,1.45,0,0,0,.83-2.59l-50-39.05a1.45,1.45,0,0,0-1.79,2.29l50,39A1.46,1.46,0,0,0,380.29,494.25Z" fill="#3c3c3b"/><path d="M353.14,527.92a1.65,1.65,0,0,0,2-1.12c2.09-8.59,8.92-18.24,16.06-25.09l32.37,17.74V523a10.49,10.49,0,0,0-5,1.76,1,1,0,0,0-.26,1.34c.3.44,1.32,2,1.8,1.78a8.29,8.29,0,0,1,3.43-.87v6.49a1,1,0,1,0,1.93,0v-6.36c3.47.63,6.38,3.24,6.38,6.42,0,.54,1.77,1,2.3,1a1,1,0,0,0,1-1A10.62,10.62,0,0,0,405.5,523v-2.47l5.7,3.12a1.28,1.28,0,0,0,1.89-.78,1.11,1.11,0,0,0-.25-1.46L381.2,503v-8.78a2.33,2.33,0,0,0,.61-1.38h1.29V477.72h6.84a1.37,1.37,0,0,0,1.38-1.37v-2.21a1.37,1.37,0,0,0-1.38-1.37H378.73a1.37,1.37,0,0,0-1.37,1.37v18.45c-9.67,6.11-22.16,21.27-25.28,33.46A1.49,1.49,0,0,0,353.14,527.92Zm21.15-29a43.63,43.63,0,0,1,5-3.62v6.52Z" fill="#3c3c3b"/><path d="M377.36,477.72a2.87,2.87,0,1,0,2.87-2.87A2.86,2.86,0,0,0,377.36,477.72Z" fill="#b2b2b2"/><path d="M377.36,492.8a2.87,2.87,0,1,0,2.87-2.87A2.87,2.87,0,0,0,377.36,492.8Z" fill="#b2b2b2"/><circle cx="353.43" cy="526.43" r="14.83" transform="translate(-79.76 63.41) rotate(-9.22)" fill="#575756"/><circle cx="353.43" cy="526.43" r="9.34" fill="#b2b2b2"/><circle cx="404.54" cy="533.54" r="7.72" fill="#575756"/><path d="M348.52,520.19a7.94,7.94,0,0,0,11.28,11,7.94,7.94,0,0,1-14.13-3A8,8,0,0,1,348.52,520.19Z" fill="#dadada"/><circle cx="353.43" cy="526.43" r="4.17" transform="translate(-268.18 651.5) rotate(-67.5)" fill="#dadada"/><path d="M378.15,493.52a1.28,1.28,0,1,0,1.28-1.27A1.27,1.27,0,0,0,378.15,493.52Z" fill="#dadada"/><path d="M378.15,478.44a1.28,1.28,0,1,0,1.28-1.27A1.28,1.28,0,0,0,378.15,478.44Z" fill="#dadada"/><path d="M418.39,456.91a.92.92,0,0,0,.5.92c.31.12.59-.09.63-.48a.93.93,0,0,0-.49-.94C418.72,456.29,418.43,456.51,418.39,456.91Z" fill="#fff"/><path d="M412.1,455.22a.76.76,0,0,0,.6.85.65.65,0,0,0,.77-.59.73.73,0,0,0-.57-.83A.67.67,0,0,0,412.1,455.22Z" fill="#fff"/><path d="M405.25,454.21a.68.68,0,0,0,.54.81.72.72,0,0,0,.79-.6.67.67,0,0,0-.54-.79A.7.7,0,0,0,405.25,454.21Z" fill="#fff"/><path d="M398.85,453.14a.7.7,0,0,0,.53.81.67.67,0,0,0,.74-.59.68.68,0,0,0-.53-.8A.65.65,0,0,0,398.85,453.14Z" fill="#fff"/><path d="M392.5,452a.79.79,0,0,0,.58.84.63.63,0,0,0,.71-.61.76.76,0,0,0-.58-.83A.61.61,0,0,0,392.5,452Z" fill="#fff"/><path d="M416,452.62a.65.65,0,0,0,.47.76.57.57,0,0,0,.73-.41.63.63,0,0,0-.45-.74A.58.58,0,0,0,416,452.62Z" fill="#fff"/><path d="M409.31,451.4a.57.57,0,0,0,.53.69.77.77,0,0,0,.85-.5.55.55,0,0,0-.53-.67A.77.77,0,0,0,409.31,451.4Z" fill="#fff"/><path d="M402.67,450.33a.62.62,0,0,0,.53.73.69.69,0,0,0,.8-.49.6.6,0,0,0-.52-.72A.68.68,0,0,0,402.67,450.33Z" fill="#fff"/><path d="M396.11,449a.74.74,0,0,0,.58.8.63.63,0,0,0,.75-.53.72.72,0,0,0-.57-.78A.6.6,0,0,0,396.11,449Z" fill="#fff"/><path d="M420.72,461.64a.88.88,0,0,0,.43.91c.28.13.56-.07.61-.45a.91.91,0,0,0-.43-.92C421,461.05,420.77,461.26,420.72,461.64Z" fill="#fff"/><path d="M415,459.66a.81.81,0,0,0,.55.88.56.56,0,0,0,.71-.53.84.84,0,0,0-.54-.9A.59.59,0,0,0,415,459.66Z" fill="#fff"/><path d="M408.09,458.46a.73.73,0,0,0,.59.83.73.73,0,0,0,.2-1.45A.7.7,0,0,0,408.09,458.46Z" fill="#fff"/><path d="M401.51,457.4a.71.71,0,0,0,.55.83.66.66,0,0,0,.74-.61.73.73,0,0,0-.56-.83A.65.65,0,0,0,401.51,457.4Z" fill="#fff"/><path d="M395.23,456.32a.72.72,0,0,0,.53.83.65.65,0,0,0,.73-.61.72.72,0,0,0-.53-.83A.65.65,0,0,0,395.23,456.32Z" fill="#fff"/><path d="M422.69,466.26a.82.82,0,0,0,.35.88c.26.12.53-.07.6-.44a.85.85,0,0,0-.36-.88C423,465.69,422.75,465.89,422.69,466.26Z" fill="#fff"/><path d="M417.54,464.21a.83.83,0,0,0,.48.88c.31.11.59-.11.64-.5a.84.84,0,0,0-.46-.89C417.89,463.59,417.59,463.82,417.54,464.21Z" fill="#fff"/><path d="M411.06,462.72a.75.75,0,0,0,.63.83.71.71,0,0,0,.82-.6.77.77,0,0,0-.62-.85A.73.73,0,0,0,411.06,462.72Z" fill="#fff"/><path d="M404.23,461.68a.72.72,0,0,0,.56.84.73.73,0,0,0,.21-1.45A.68.68,0,0,0,404.23,461.68Z" fill="#fff"/><path d="M397.79,460.62a.65.65,0,1,0,1.28.22.71.71,0,0,0-.53-.84A.69.69,0,0,0,397.79,460.62Z" fill="#fff"/><path d="M391.5,459.54a.68.68,0,0,0,.5.83.7.7,0,0,0,.77-.62.68.68,0,0,0-.5-.83A.71.71,0,0,0,391.5,459.54Z" fill="#fff"/><path d="M424.47,471.48a10.82,10.82,0,0,0,.3-1.25c-.21,0-.42.17-.49.48A.86.86,0,0,0,424.47,471.48Z" fill="#fff"/><path d="M419.7,468.73a.84.84,0,0,0,.39.88c.27.1.54-.12.6-.49a.83.83,0,0,0-.38-.88C420,468.14,419.76,468.35,419.7,468.73Z" fill="#fff"/><path d="M414,467.06a.77.77,0,0,0,.55.85.61.61,0,0,0,.73-.56.77.77,0,0,0-.54-.86A.62.62,0,0,0,414,467.06Z" fill="#fff"/><path d="M407.05,466a.71.71,0,1,0,.8-.62A.71.71,0,0,0,407.05,466Z" fill="#fff"/><path d="M400.36,464.91a.7.7,0,0,0,.54.84.74.74,0,1,0-.54-.84Z" fill="#fff"/><path d="M393.92,463.85a.66.66,0,0,0,.49.83.73.73,0,0,0,.8-.62.68.68,0,0,0-.5-.83A.72.72,0,0,0,393.92,463.85Z" fill="#fff"/><path d="M421.43,473.17a.79.79,0,0,0,.31.85c.23.1.48-.12.55-.48a.77.77,0,0,0-.29-.86C421.76,472.58,421.5,472.8,421.43,473.17Z" fill="#fff"/><path d="M416.56,471.46a.78.78,0,0,0,.46.86c.3.09.58-.15.64-.54a.78.78,0,0,0-.44-.86C416.91,470.83,416.62,471.08,416.56,471.46Z" fill="#fff"/><path d="M410,470.22a.73.73,0,1,0,1.45.2.72.72,0,0,0-.62-.82A.73.73,0,0,0,410,470.22Z" fill="#fff"/><path d="M403.06,469.2a.71.71,0,0,0,.57.83.72.72,0,0,0,.81-.62.71.71,0,0,0-.57-.83A.73.73,0,0,0,403.06,469.2Z" fill="#fff"/><path d="M396.38,468.15a.68.68,0,0,0,.52.84.74.74,0,0,0,.81-.62.68.68,0,0,0-.52-.84A.74.74,0,0,0,396.38,468.15Z" fill="#fff"/><path d="M418.61,475.87a.77.77,0,0,0,.36.85c.25.09.5-.15.56-.53a.79.79,0,0,0-.34-.86C418.93,475.24,418.67,475.48,418.61,475.87Z" fill="#fff"/><path d="M413,474.49a.72.72,0,0,0,.56.83.63.63,0,0,0,.73-.59.72.72,0,0,0-.54-.84A.66.66,0,0,0,413,474.49Z" fill="#fff"/><path d="M405.93,473.47a.73.73,0,0,0,.61.83.74.74,0,0,0,.82-.63.73.73,0,0,0-.61-.83A.74.74,0,0,0,405.93,473.47Z" fill="#fff"/><path d="M399,472.44a.7.7,0,0,0,.56.84.76.76,0,0,0,.83-.63.7.7,0,0,0-.57-.83A.75.75,0,0,0,399,472.44Z" fill="#fff"/><path d="M392.23,471.41a.66.66,0,0,0,.52.83.77.77,0,0,0,.84-.62.67.67,0,0,0-.51-.84A.79.79,0,0,0,392.23,471.41Z" fill="#fff"/><path d="M408.81,442.92c-.11.27.13.56.53.66a.79.79,0,0,0,.92-.28c.12-.26-.11-.56-.52-.67A.79.79,0,0,0,408.81,442.92Z" fill="#fff"/><path d="M401.4,440.69c-.08.31.2.67.62.8s.82,0,.91-.31-.19-.65-.61-.79S401.48,440.38,401.4,440.69Z" fill="#fff"/><path d="M393.66,438.12a1,1,0,0,0,.71.9c.43.14.82,0,.87-.37a.94.94,0,0,0-.71-.9C394.09,437.59,393.7,437.76,393.66,438.12Z" fill="#fff"/><path d="M417.78,447.59c-.1.23.08.5.39.6a.6.6,0,0,0,.74-.25c.1-.23-.07-.5-.38-.6A.61.61,0,0,0,417.78,447.59Z" fill="#fff"/><path d="M411.27,446.12c-.11.26.11.52.49.59a.9.9,0,0,0,.92-.34c.12-.24-.11-.5-.49-.57A.87.87,0,0,0,411.27,446.12Z" fill="#fff"/><path d="M404.26,444.55c-.09.29.16.61.55.7a.74.74,0,0,0,.89-.34c.1-.28-.14-.58-.54-.69A.73.73,0,0,0,404.26,444.55Z" fill="#fff"/><path d="M397,442.54a.79.79,0,0,0,.63.81.63.63,0,0,0,.85-.38.79.79,0,0,0-.63-.81C397.46,442,397.08,442.2,397,442.54Z" fill="#fff"/><path d="M389.55,440.37a1,1,0,0,0,.73.9c.42.11.77-.09.79-.46a1,1,0,0,0-.73-.9C389.92,439.79,389.56,440,389.55,440.37Z" fill="#fff"/><path d="M420,451.51a.55.55,0,0,0,.4,0c-.05-.32-.11-.64-.17-1a.5.5,0,0,0-.62.3A.6.6,0,0,0,420,451.51Z" fill="#fff"/><path d="M413.69,449.16c-.11.26.12.55.48.63a.73.73,0,0,0,.84-.35c.1-.27-.1-.54-.46-.62A.75.75,0,0,0,413.69,449.16Z" fill="#fff"/><path d="M406.83,448c-.1.29.12.59.5.66a.79.79,0,0,0,.87-.41c.1-.28-.12-.56-.5-.64A.75.75,0,0,0,406.83,448Z" fill="#fff"/><path d="M400,446.55a.68.68,0,0,0,.56.75.66.66,0,0,0,.82-.43.65.65,0,0,0-.56-.73A.64.64,0,0,0,400,446.55Z" fill="#fff"/><path d="M393,444.84a.85.85,0,0,0,.66.83.58.58,0,0,0,.77-.48.84.84,0,0,0-.66-.83A.58.58,0,0,0,393,444.84Z" fill="#fff"/><path d="M389.78,454.65c0,.44,0,.9,0,1.37a.72.72,0,0,0,.39-.56A.76.76,0,0,0,389.78,454.65Z" fill="#fff"/><path d="M389.26,447.57a.92.92,0,0,0,.71.91.63.63,0,0,0,.83-.52.91.91,0,0,0-.71-.9A.62.62,0,0,0,389.26,447.57Z" fill="#fff"/><path d="M389.8,467.12a.63.63,0,0,0,.48.83.85.85,0,0,0,.87-.65.63.63,0,0,0-.48-.83A.85.85,0,0,0,389.8,467.12Z" fill="#fff"/><path d="M307.67,530.63a16.57,16.57,0,0,1,2.81,2c1,1,1.53,2.28,2.46,3.3,1.61,1.79,3.33,1.86,5.63,1.88,1.22,0,5.67,0,6.09-1.76.46-1.93-4.05-.35-5.24-2.28s-2.89-4-3.81-5.84c-.32-.65-.57-2.15-1.31-2.45-.52-.21-2,.5-2.7.46-1.27-.06-4.59-1.64-5.68-.49C303.76,527.62,305.71,529.33,307.67,530.63Z" fill="#ffd2a8"/><path d="M279,525.36c1.53,2.43.84,5.34,2,7.82.79,1.75,6.32,4.58,7.87,3.42,1.2-.89.35-1.19-.29-1.58-1.24-.75-1.41-.39-2.13-1.79s-.67-2-.58-3.74c.08-1.58.13-3.16.13-4.74,0-1.09.36-2.88-.43-3.69s-3.1-1.56-4.22-2.38-1.38-1.3-2.79-.78a5.73,5.73,0,0,0-2.7,2.19C274.76,522,278.05,523.82,279,525.36Z" fill="#ffd2a8"/><path d="M283.77,521.37c.84.29,1.7,1.15,2.33.5.4-.41.35-3.18.47-3.79a53.1,53.1,0,0,1,2-8.34c1-2.54,2.63-4.9,3.85-7.35s2.11-5.16,3.28-7.69c1-2.14,3.21-3.1,4.79-4.81a17.86,17.86,0,0,0,3.62-5.63c.45-1.7-.73-4.75-1-6.57-.65-4.87-1.18-9.74-3.93-13.95-.49-.75-2.62-4.28-3.68-3.86-.78.31-.89,5.47-1.07,6.42-.87,4.65-1.29,9.42-2.28,14s-3.75,7.37-6.09,11.16a26.89,26.89,0,0,0-4.24,13,33.24,33.24,0,0,1-.79,7,35.59,35.59,0,0,1-2.31,5.8C278,518.74,283.12,521.15,283.77,521.37Z" fill="#e06700"/><path d="M293.75,456.74c.83,4.77,3,5.91,5.32,9.66,1.08,1.78,2.13,6.7,2.44,10.32.33,3.88,1.77,7.24,2.07,11.12.5,6.61-1.93,13-.87,19.61.57,3.55,2,6.94,2.91,10.42a19,19,0,0,1,.84,4c0,1.15-.83,2.73-.51,3.71.65,2,3.42,1.68,5,1.4a7.76,7.76,0,0,0,3-.8c1-.78.66-.69.34-2A85.83,85.83,0,0,1,312,504.37a22.76,22.76,0,0,1,1.72-9.09c1.42-3.28,2.62-5.75,2.48-9.39s1-7.6,1.19-11.4a81,81,0,0,0-.15-10.28c-.22-2.7-1.25-5.69.4-7.94.47-.64,2-2.15,1.93-3.07-.09-1.32-2.47-1.36-3.47-1.62a91.57,91.57,0,0,1-10.62-3.49c-1-.41-6.91-3.67-7.51-2.7C295.62,448,292.87,451.73,293.75,456.74Z" fill="#ff8f20"/><path d="M305.65,538.37c.06.69.32,2.7.32,2.7s3,.13,3.86.14c2.89,0,5.79.1,8.68,0,2.39-.1,4.22.26,5-2.27.23-.75.66-2-.12-1.79a29.46,29.46,0,0,1-4.27.28c-2.38.05-4.63.24-6.28-1.68-1.19-1.39-1.81-3.21-3.29-4.37-.49-.4-5.07-2.5-4.95-.84C304.76,533.13,305.46,535.75,305.65,538.37Z" fill="#1d71b8"/><path d="M277,535.1c2.35,1.51,3.9,3.28,6.66,4.08a3.63,3.63,0,0,0,2.25.24,11.64,11.64,0,0,0,2.28-1.59c.67-1.32-2.75-1.71-3.81-2.19-2.73-1.24-3.65-2.78-4.32-5.67a13.64,13.64,0,0,0-2.9-6.24c-2.22-2.61-2.09-1.9-3.18,1-.45,1.22-1,2.41-1.48,3.6-.41.94-1.45,2.32-1.43,3.34C270.7,532.42,276.07,534.54,277,535.1Z" fill="#1d71b8"/><path d="M339.32,413.37a8.89,8.89,0,0,0,3.38-1.23c.58-.34,2.87-1.47,3.1-2.08.58-1.6-3.38-1.64-4.48-1.47-2.27.36-4.12,2.21-5.9,3.51S339,413.42,339.32,413.37Z" fill="#3c3c3b"/><path d="M329.87,414.47c4.48,1.86,6.37-2.33,9.82-4.15.77-.41,2.24-1.12,3.14-.94,1.12.23,1.75,1.63,3.08,1.63,1.72,0,2.13-2,2.73-2.43a7.33,7.33,0,0,0,1.25-1.75c.27-.45,1.83,0,2.16-1.05.11-.35-.44-1.45-.53-1.81a5.08,5.08,0,0,1-.14-3c1.27-4,2.38-6.71-1.15-9.42-3.11-2.4-8.07-3.38-11.61-.91-3,2.1-2.79,5.88-3.22,9.11a8.89,8.89,0,0,1-1.28,3.7,6.57,6.57,0,0,1-1.81,1.83c-.56.38-1.94.62-2.29,1.15C326.37,408.5,325.6,412.7,329.87,414.47Z" fill="#ffd2a8"/><path d="M306.82,426c.54.63,1.83,1.92,2.75,1.4.47-.27,1.67-2.8,2-3.36a50.85,50.85,0,0,0,4.56-8.07c2.08-4.76,4.72-9.13,10.55-9.32,2.91-.09,5.46,1.74,8.41,1.77a12.12,12.12,0,0,0,6.88-2c3.38-2.26,5-6.21,7.72-9.09,1.72-1.81,3.38-2.28,3.42-3.38,0-1.31-2.71-4-3.73-4.67-3.75-2.4-10.1-3.58-13.4-.62-4.82,4.3-3.6,8-6.9,11-2.95,2.75-7.06.61-10,3.48-1.7,1.67-2,4.59-3.59,6.32a11.82,11.82,0,0,1-5.12,3.12C303.47,414.94,302.8,421.4,306.82,426Z" fill="#5c504e"/><path d="M331.48,416.87a31.11,31.11,0,0,0,.82,5.85c.86,3,3.07,4.8,5.36,6.69a113.83,113.83,0,0,0,9.56,6.69c3.38,2.26,6.62,4.65,10.22,6.58,3.31,1.76,7.31,2.83,10.4,4.93s4.38,5.29,7.68,7c1.12.58,7.48,3.14,7,.11-.26-1.51-2.95-1.92-4-2.58a6.34,6.34,0,0,1-3.07-4.16c.68.28,4,1.56,4.65.89,1-1-1.39-1.49-1.94-1.73-1.61-.69-3.11-1.69-4.86-1.94-2-.28-3.15.06-4.9-1.12a76.73,76.73,0,0,1-7.46-6.14c-2.36-2.08-5.21-2.9-7.67-4.69s-3.81-4.72-6-6.81c-1-.95-2.28-1.59-3.21-2.62a17.73,17.73,0,0,1-2.28-3.75,16,16,0,0,0-5.3-6.24,21.37,21.37,0,0,1-3.32-2.5c-.13-.14-1.83-2.52-1.84-1C330.83,412.3,331.31,414.93,331.48,416.87Z" fill="url(#Безымянный_градиент_13)"/><path d="M298.38,444.68c3.89-2.76,5.88-7.21,8.45-11.07a128.25,128.25,0,0,0,7-11.7c2.1-4,3-8.69,6.16-12.15,2.1-2.35,7.4-5.65,10.4-3.13,3.22,2.7,2.92,9.17,3.08,12.89a13.16,13.16,0,0,0,.13,4.31c.27.92,3.38,5.27,3.43,3,0-4.42-1.37-8.76-1-13.2.06-.63.47-.46.41.19-.41,4.67,1.53,9.07,1.56,13.76,0,2.41-.27,4.47-1,5.56-2,2.84-5.66,3.1-6.54,3.5-1.8.84-5.57,6.12-7,9.25-.54,1.16-1,2.35-1.56,3.52-.37.83-1.13,3.51-1.77,4-1.39,1-6.06-1.16-7.5-1.74-2.71-1.09-5.21-2.64-7.88-3.83a42.06,42.06,0,0,0-4-1.58C300.31,446.09,297.23,445.5,298.38,444.68Z" fill="#ededed"/><path d="M326.14,438.08a11.06,11.06,0,0,0,1.8.81h0a9.39,9.39,0,0,1,2.47-2.28c.74-.34,3.46-.58,5.47-2.33a52,52,0,0,1-4.74-2.34c-5.65-3.16-4.32-12.4-5.77-11.59C321.82,422.35,320.49,434.92,326.14,438.08Z" fill="#d3d3d3"/><path d="M311.32,435.68a29.94,29.94,0,0,0,4.31,7c1.67,2.12,3.46,4.51,5.08,6.66,1.91,2.55,2.61,2.72,5.78,2.91,1.42.08,3.32-.07,4.6.47,1,.42,1.48,1.41,2.35,1.92,2.05,1.2,1.16-.53.69-1.65a10,10,0,0,0-3.42-4.33c-1.39-1.07-3.09-.22-4.81-.54-4.1-.75-5.54-6.93-6.64-10.4-.67-2.12-2-5.11-1.93-7.33.05-1.68,2.07-3.57,3.25-4.78,3-3,7.05-5.28,8.44-9.54a8.61,8.61,0,0,0-.13-5.49c-.81-2.12-2.44-1.87-4.44-1.59-4.88.7-6,3.88-8.18,7.79-2.33,4.1-5.4,7.8-7.35,12.37C308.44,430.81,310.67,434.15,311.32,435.68Z" fill="#ffd2a8"/></g><g id="Layer_5" data-name="Layer 5"><path d="M1080.64,453.59A154.85,154.85,0,0,0,1067.53,469a41.24,41.24,0,0,0-4.89,8.81,22.61,22.61,0,0,0-1.54,9.86,31,31,0,0,0,2.67,9.66,81.76,81.76,0,0,0,4.69,8.94c3.43,5.8,7.16,11.44,10.27,17.45a61.43,61.43,0,0,1,6.64,19.11c.12.84.2,1.69.31,2.53l.1,2.55a41.2,41.2,0,0,1-.12,5.09c0,.85-.22,1.68-.33,2.53s-.2,1.68-.41,2.51a46.34,46.34,0,0,1-1.32,4.92,55.26,55.26,0,0,1-9.75,17.76,71.7,71.7,0,0,1-15,13.72l-2.09,1.44c-.72.46-1.46.88-2.18,1.32l-2.19,1.3-2.25,1.18-2.26,1.17a19.82,19.82,0,0,1-2.41,1c-1.62.55-3.27,1-4.92,1.35-6.62,1.5-13.31,2.49-20,3.43-13.39,1.82-26.81,3.21-40.25,4.5-26.87,2.54-53.78,4.58-80.71,6.44s-53.86,3.46-80.82,4.78-53.92,2.41-80.91,3.12c-13.49.35-27,.6-40.48.66-6.75.07-13.5-.06-20.25-.09H656.94L576,626l-80.94,0H474.82c-6.75,0-13.5.16-20.25.09-13.5-.06-27-.31-40.48-.65-27-.71-54-1.81-80.91-3.13q-20.22-1-40.43-2.18c-13.46-.82-26.93-1.66-40.39-2.6-26.93-1.86-53.84-3.89-80.71-6.44-13.44-1.28-26.86-2.68-40.25-4.5-6.68-.94-13.37-1.93-20-3.43a50.51,50.51,0,0,1-4.92-1.35,19.82,19.82,0,0,1-2.41-1l-2.26-1.17-2.26-1.18-2.18-1.3c-.73-.44-1.46-.86-2.18-1.32l-2.1-1.44a72.18,72.18,0,0,1-15-13.71,55.39,55.39,0,0,1-9.74-17.77A46.34,46.34,0,0,1,67.08,558c-.21-.82-.27-1.68-.41-2.51s-.3-1.68-.33-2.53a43.26,43.26,0,0,1-.13-5.09l.11-2.55c.1-.84.19-1.69.3-2.53a61.71,61.71,0,0,1,6.65-19.11c3.11-6,6.84-11.65,10.27-17.45a83.54,83.54,0,0,0,4.69-8.94,31,31,0,0,0,2.67-9.66,22.76,22.76,0,0,0-1.54-9.86A41.24,41.24,0,0,0,84.47,469a156.19,156.19,0,0,0-13.11-15.39,155.41,155.41,0,0,1,13.21,15.32,41.28,41.28,0,0,1,5,8.81,22.87,22.87,0,0,1,1.61,9.95,31.33,31.33,0,0,1-2.63,9.77,81.35,81.35,0,0,1-4.66,9c-3.4,5.84-7.09,11.49-10.15,17.49a61,61,0,0,0-6.47,19c-.11.83-.19,1.66-.28,2.5l-.09,2.5a42,42,0,0,0,.15,5c0,.83.23,1.65.34,2.48s.21,1.67.42,2.48a47.2,47.2,0,0,0,1.32,4.83,54.44,54.44,0,0,0,9.72,17.46,71.1,71.1,0,0,0,14.85,13.44L95.74,595c.71.45,1.44.86,2.16,1.3l2.16,1.28,2.23,1.16,2.24,1.15a19.74,19.74,0,0,0,2.29.89,49.1,49.1,0,0,0,4.83,1.31c6.55,1.46,13.23,2.43,19.9,3.35,13.37,1.77,26.79,3.11,40.22,4.36,26.86,2.45,53.77,4.39,80.69,6.15,53.84,3.47,107.74,6.24,161.67,7.63,13.48.32,27,.56,40.45.61,6.74.06,13.48-.08,20.23-.12l20.23,0,81,0,81,0,20.23,0c6.75,0,13.49.17,20.23.11,13.48-.05,27-.28,40.45-.61,53.93-1.39,107.83-4.16,161.67-7.62,26.92-1.77,53.83-3.71,80.7-6.16,13.42-1.24,26.85-2.59,40.21-4.36,6.67-.92,13.35-1.89,19.9-3.34,1.63-.39,3.26-.78,4.83-1.31a19.79,19.79,0,0,0,2.29-.9l2.24-1.15,2.23-1.16,2.16-1.28c.72-.43,1.45-.85,2.16-1.29l2.08-1.41a71.17,71.17,0,0,0,14.85-13.45,54.5,54.5,0,0,0,9.72-17.45,48.1,48.1,0,0,0,1.32-4.84c.21-.81.28-1.65.43-2.48s.3-1.65.33-2.48a42,42,0,0,0,.16-5l-.09-2.51c-.1-.83-.18-1.66-.29-2.49a60.72,60.72,0,0,0-6.47-19c-3.06-6-6.75-11.65-10.15-17.49a82.33,82.33,0,0,1-4.66-9,31.2,31.2,0,0,1-2.63-9.76,23,23,0,0,1,1.61-9.95,41.71,41.71,0,0,1,5-8.81A155.41,155.41,0,0,1,1080.64,453.59Z" fill="#00afaf"/><path d="M57.68,415.13c2.17,6.73,6.09,12.74,10.48,18.23s9.33,10.56,14.13,15.72,9.54,10.43,13.38,16.38a46.89,46.89,0,0,1,4.77,9.46,33.08,33.08,0,0,1,2,10.42A34.65,34.65,0,0,1,101,495.85a57.84,57.84,0,0,1-4,9.83C93.8,512,89.88,517.89,86.38,524s-6.67,12.47-7.85,19.37a29.11,29.11,0,0,0-.46,5.19c0,.43,0,.87,0,1.3l.1,1.3.1,1.3a8,8,0,0,0,.17,1.29l.47,2.57c.22.84.48,1.67.71,2.51a22.5,22.5,0,0,0,.87,2.46,21.86,21.86,0,0,0,1,2.4,51.88,51.88,0,0,0,12.69,16.47,72.19,72.19,0,0,0,8.4,6.27c.73.48,1.5.89,2.25,1.34s1.51.9,2.29,1.28l2.34,1.19c.39.2.77.33,1.16.49l1.23.39a103.62,103.62,0,0,0,10.29,2.11c3.47.56,7,1.06,10.45,1.51,7,.92,14,1.7,21,2.44,28,2.9,56.16,5.07,84.29,7,56.26,3.81,112.59,6.86,169,8.46,14.09.39,28.19.68,42.28.78,7,0,14.09.06,21.13,0s14.11-.09,21.16-.1l84.61-.05,84.61.05c7,0,14.11,0,21.16.1s14.09.07,21.13,0c14.09-.1,28.19-.39,42.28-.78,56.36-1.6,112.69-4.65,169-8.46,28.13-2,56.25-4.13,84.29-7,7-.74,14-1.52,21-2.44,3.49-.46,7-1,10.45-1.52a100.81,100.81,0,0,0,10.29-2.1l1.23-.39c.39-.16.77-.29,1.16-.49l2.33-1.19c.79-.38,1.54-.84,2.3-1.28s1.52-.86,2.25-1.34a71.24,71.24,0,0,0,8.39-6.27,52,52,0,0,0,12.7-16.47,24,24,0,0,0,1-2.4,22.5,22.5,0,0,0,.87-2.46c.23-.84.49-1.67.7-2.51l.48-2.57a8,8,0,0,0,.16-1.29l.11-1.3.1-1.3c0-.43,0-.87,0-1.3a28.21,28.21,0,0,0-.45-5.19c-1.18-6.9-4.37-13.29-7.85-19.37s-7.42-12-10.62-18.31a57.88,57.88,0,0,1-4-9.83,34.64,34.64,0,0,1-1.43-10.51,33.08,33.08,0,0,1,2-10.42,46.89,46.89,0,0,1,4.77-9.46c3.84-5.95,8.6-11.21,13.38-16.38s9.72-10.22,14.13-15.72,8.31-11.5,10.48-18.23c-2.13,6.75-6,12.79-10.38,18.3s-9.28,10.63-14,15.82-9.47,10.47-13.25,16.41a46.14,46.14,0,0,0-4.68,9.41,32.79,32.79,0,0,0-1.9,10.28,34.16,34.16,0,0,0,1.47,10.34,56.76,56.76,0,0,0,4,9.71c3.21,6.26,7.16,12.11,10.71,18.22s6.8,12.53,8,19.59a29.67,29.67,0,0,1,.5,5.32c0,.45,0,.9,0,1.34l-.1,1.34-.1,1.34a7.57,7.57,0,0,1-.17,1.33l-.47,2.63c-.21.87-.47,1.72-.71,2.59a22,22,0,0,1-.87,2.52,24.26,24.26,0,0,1-1,2.47,52.49,52.49,0,0,1-12.89,16.85,70.87,70.87,0,0,1-8.51,6.4c-.74.49-1.52.91-2.28,1.37s-1.53.92-2.33,1.31l-2.36,1.22c-.4.2-.85.36-1.28.54l-1.29.41a102.4,102.4,0,0,1-10.41,2.17q-5.23.85-10.48,1.56c-7,.94-14,1.74-21,2.51-28.06,3-56.18,5.25-84.31,7.31S858,609.52,829.78,611s-56.35,2.69-84.55,3.5c-14.1.4-28.2.71-42.31.83q-10.59.08-21.17,0c-7-.12-14.1-.08-21.15-.08l-84.6,0-84.6,0c-7,0-14.1,0-21.15.08s-14.11.05-21.17,0c-14.11-.11-28.21-.42-42.31-.82-28.2-.82-56.38-2-84.55-3.5s-56.33-3.21-84.46-5.25-56.25-4.31-84.31-7.31c-7-.76-14-1.57-21-2.51q-5.25-.7-10.48-1.55a105.19,105.19,0,0,1-10.41-2.17l-1.29-.41c-.43-.18-.88-.34-1.27-.54L106.61,590c-.8-.39-1.56-.85-2.33-1.3s-1.54-.88-2.28-1.37a71.68,71.68,0,0,1-8.51-6.4,52.32,52.32,0,0,1-12.88-16.85,22.19,22.19,0,0,1-1-2.47,19.9,19.9,0,0,1-.88-2.53c-.24-.86-.5-1.71-.71-2.58l-.47-2.63a7.57,7.57,0,0,1-.17-1.33l-.09-1.34-.1-1.34c0-.44,0-.89,0-1.34a29.67,29.67,0,0,1,.5-5.32c1.25-7.06,4.53-13.5,8.06-19.59s7.49-12,10.7-18.22a56.76,56.76,0,0,0,4-9.71,33.85,33.85,0,0,0,1.47-10.34,32.79,32.79,0,0,0-1.9-10.28,46.14,46.14,0,0,0-4.68-9.41c-3.78-5.94-8.5-11.22-13.25-16.41s-9.66-10.29-14-15.82S59.81,421.88,57.68,415.13Z" fill="#00afaf"/></g></g></svg>